<svg
  width="30"
  height="30"
  viewBox="0 0 30 30"
  fill="none"
  xmlns="http://www.w3.org/2000/svg"
>
<circle cx="15" cy="15" r="15" fill="white" />
<path
    d="M19.7489 20.75C18.6479 20.75 17.7523 19.8527 17.7523 18.7498V15.0675C19.5702 14.9267 20.8854 14.5409 21.7455 13.9111V18.7498C21.7455 19.8527 20.8498 20.75 19.7489 20.75ZM17.7523 10.2501C17.7523 9.14717 18.6479 8.24996 19.7489 8.24996C20.8498 8.24996 21.7455 9.14717 21.7455 10.2501V11.4584C21.7259 11.8833 21.6339 12.3199 21.2605 12.6957C20.8233 13.1351 19.8555 13.6308 17.7523 13.8089V10.2501ZM13.2474 18.7498C13.2474 19.8527 12.3517 20.75 11.2508 20.75C10.1498 20.75 9.25416 19.8527 9.25416 18.7498V17.6285C9.27418 17.2201 9.37215 16.7746 9.77571 16.3676C10.2297 15.909 11.1975 15.3939 13.2474 15.2012V18.7498ZM11.2508 8.24996C12.3517 8.24996 13.2474 9.14717 13.2474 10.2501V13.9436C11.4431 14.0987 10.1269 14.5103 9.25416 15.1802V10.2501C9.25416 9.14717 10.1498 8.24996 11.2508 8.24996ZM22.9963 10.9624L22.9932 10.7499V10.2501C22.9932 8.4581 21.5377 7 19.7489 7C17.96 7 16.5045 8.4581 16.5045 10.2501V13.8689C16.1891 13.8753 14.8248 13.8735 14.4951 13.8811V10.2501C14.4951 8.4581 13.0396 7 11.2508 7C9.46192 7 8.00634 8.4581 8.00634 10.2501V17.5664C7.99622 17.765 8.00042 17.9423 8.00391 18.0882L8.00634 18.25V18.7498C8.00634 20.5418 9.46192 22 11.2508 22C13.0396 22 14.4951 20.5418 14.4951 18.7498V15.1335C14.8139 15.1257 16.1788 15.1281 16.5045 15.1223V18.7498C16.5045 20.5418 17.96 22 19.7489 22C21.5377 22 22.9932 20.5418 22.9932 18.7498V11.526C23.0036 11.317 22.9999 11.1257 22.9963 10.9624Z"
    fill="#FBC403"
  />
</svg>
