<?xml version="1.0" standalone="no"?>
<!DOCTYPE svg PUBLIC "-//W3C//DTD SVG 20010904//EN"
 "http://www.w3.org/TR/2001/REC-SVG-20010904/DTD/svg10.dtd">
<svg version="1.0" xmlns="http://www.w3.org/2000/svg"
 width="300.000000pt" height="286.000000pt" viewBox="0 0 300.000000 286.000000"
 preserveAspectRatio="xMidYMid meet">
<metadata>
Created by potrace 1.10, written by Peter Selinger 2001-2011
</metadata>
<g transform="translate(0.000000,286.000000) scale(0.100000,-0.100000)"
fill="#ffd700" stroke="none">
<path d="M1340 2823 c-320 -52 -561 -168 -772 -371 -123 -119 -206 -232 -283
-387 -103 -207 -145 -387 -145 -621 0 -365 133 -699 383 -961 113 -118 229
-206 366 -276 210 -109 384 -150 626 -150 241 0 392 35 610 143 737 365 988
1307 534 2006 -131 202 -361 402 -570 498 -105 47 -247 91 -358 110 -87 15
-323 20 -391 9z m460 -57 c118 -27 266 -81 349 -128 368 -206 614 -547 686
-950 27 -149 17 -456 -18 -589 -43 -158 -97 -278 -194 -429 -67 -104 -247
-284 -353 -355 -231 -154 -478 -228 -755 -227 -159 0 -280 18 -415 62 -210 69
-364 164 -531 330 -192 190 -299 377 -365 644 -36 141 -44 397 -19 547 93 561
525 1003 1076 1103 129 23 144 25 294 20 100 -3 170 -11 245 -28z"/>
<path d="M1360 2750 c-297 -41 -543 -161 -745 -364 -50 -50 -114 -122 -142
-161 -103 -139 -190 -336 -230 -525 -25 -118 -25 -381 1 -500 58 -267 180
-496 365 -681 53 -52 110 -104 126 -115 17 -10 50 -34 74 -52 108 -81 321
-168 486 -197 115 -20 324 -21 436 -1 468 83 851 423 1005 892 151 463 25 977
-327 1331 -185 185 -408 306 -663 358 -96 19 -297 27 -386 15z m381 -46 c433
-82 800 -399 954 -824 67 -186 91 -432 62 -626 -87 -564 -527 -1001 -1084
-1075 -107 -14 -310 -7 -411 15 -329 71 -615 267 -799 549 -408 620 -210 1456
432 1822 250 142 560 193 846 139z"/>
<path d="M1130 2521 c-152 -50 -274 -127 -387 -244 -164 -170 -263 -361 -342
-660 -26 -95 -26 -95 0 -66 l20 24 -7 -25 c-19 -66 -24 -101 -24 -168 0 -83
28 -233 63 -336 l23 -70 0 130 c0 131 11 194 39 229 15 19 16 18 9 -15 -13
-66 -6 -198 16 -277 29 -105 78 -191 161 -278 58 -60 205 -179 187 -149 -4 5
-27 41 -53 79 -48 73 -85 174 -85 229 1 30 2 30 27 -19 14 -27 64 -89 112
-136 l86 -87 -20 -27 c-27 -36 -27 -104 1 -142 50 -68 211 -163 344 -204 96
-30 254 -32 345 -5 68 20 172 74 227 118 31 24 41 27 58 18 17 -9 22 -7 29 12
8 19 58 128 69 149 1 4 -33 -12 -77 -35 -68 -35 -79 -44 -75 -62 5 -18 -5 -25
-66 -53 -203 -91 -410 -78 -545 33 l-30 25 60 -24 c91 -37 160 -48 266 -43 81
4 107 10 164 36 37 18 83 45 103 61 21 15 60 40 87 54 90 46 207 158 312 301
l43 58 0 -33 c0 -61 -77 -197 -177 -316 -25 -29 -41 -53 -38 -53 13 0 169 127
211 172 92 96 163 214 199 328 9 31 20 108 24 175 6 118 6 119 22 90 27 -50
42 -134 43 -237 1 -53 4 -94 7 -90 4 4 15 59 25 122 22 132 25 372 6 434 -15
50 -9 58 13 16 9 -18 18 -30 20 -28 6 6 -42 197 -71 283 -68 202 -176 377
-312 506 -49 46 -114 99 -145 117 -65 39 -198 97 -243 107 -30 6 -31 5 -47
-53 -13 -48 -29 -72 -83 -130 -36 -40 -63 -72 -60 -72 10 0 88 41 117 61 24
17 27 17 81 -5 249 -101 388 -319 388 -606 0 -118 -16 -227 -36 -258 -9 -13
-30 -30 -49 -38 -28 -11 -43 -11 -106 2 -124 26 -293 -4 -400 -72 -39 -24 -41
-28 -35 -62 4 -21 9 -66 11 -102 l5 -65 -36 105 c-49 145 -54 217 -21 296 14
33 31 81 37 107 12 44 13 45 46 40 37 -6 41 -2 167 135 44 49 57 58 57 43 0
-12 7 -21 15 -21 11 0 15 12 15 49 l0 50 -47 13 c-42 12 -48 12 -51 -2 -2 -8
-26 -28 -54 -43 l-51 -29 22 34 c12 18 31 50 43 71 21 35 58 52 58 25 0 -6 9
-2 20 10 11 11 45 29 76 39 73 23 91 47 73 100 l-13 38 -10 -27 c-5 -16 -19
-31 -30 -34 -11 -4 -41 -28 -67 -55 l-47 -48 -5 35 c-8 49 -23 64 -64 64 -35
0 -60 -19 -108 -80 -40 -50 -98 -90 -133 -90 -42 0 -71 -15 -81 -43 -6 -15
-30 -30 -72 -46 l-63 -24 27 -21 c30 -24 34 -36 13 -36 -17 0 -106 -68 -106
-80 0 -6 13 -10 29 -10 58 0 82 -23 36 -34 -25 -6 -105 -71 -105 -85 0 -4 15
-5 34 -3 54 6 62 -2 25 -25 -19 -11 -42 -34 -52 -51 l-17 -30 52 14 c29 7 54
12 55 10 4 -4 -31 -84 -45 -104 -7 -11 -17 -8 -47 12 -58 40 -107 49 -232 43
-117 -6 -180 3 -194 25 -12 17 -11 122 1 236 23 220 96 397 209 512 76 78 171
130 250 138 42 4 51 0 99 -38 62 -50 69 -40 11 15 -46 45 -84 113 -94 168 -9
46 -19 46 -135 8z m118 -48 c7 -21 15 -45 18 -54 4 -13 -4 -17 -36 -22 -74
-10 -168 -64 -246 -142 -59 -59 -82 -91 -123 -176 -74 -154 -92 -231 -98 -434
l-5 -170 27 -25 c26 -24 30 -25 183 -25 142 0 161 -2 202 -22 25 -12 53 -28
62 -35 14 -10 21 -9 39 7 24 22 58 90 59 117 0 22 -29 50 -43 41 -7 -3 -4 3 6
14 22 25 22 49 0 62 -20 11 -21 10 30 40 42 26 48 52 16 75 -21 15 -18 36 5
36 24 0 49 38 42 63 -5 21 0 26 34 40 23 9 44 26 51 40 12 26 35 37 77 37 33
0 102 52 146 111 40 52 76 69 101 49 21 -17 19 -31 -8 -57 -13 -12 -38 -50
-56 -83 -30 -56 -32 -63 -18 -78 15 -14 20 -14 57 3 22 10 45 24 51 32 12 14
59 18 59 6 -1 -5 -43 -52 -94 -106 -84 -88 -96 -97 -120 -91 -35 8 -63 -17
-72 -65 -4 -20 -20 -66 -36 -103 -38 -90 -37 -142 7 -276 41 -128 60 -159 82
-140 13 10 15 29 10 104 l-5 91 52 26 c110 56 231 68 411 41 47 -7 98 22 126
71 25 43 43 193 36 310 -16 296 -198 536 -464 611 -8 2 -5 19 10 56 12 29 22
55 24 56 1 2 19 -1 40 -8 322 -103 557 -380 669 -788 14 -53 22 -101 18 -110
-4 -9 -7 -93 -6 -187 2 -161 1 -168 -13 -131 -26 69 -64 96 -83 59 -5 -10 -12
-67 -15 -128 -3 -72 -12 -132 -26 -175 -29 -91 -101 -209 -172 -282 l-60 -63
31 50 c32 52 70 145 70 172 0 17 -28 53 -41 53 -5 0 -35 -36 -69 -80 -79 -104
-180 -204 -254 -252 -32 -21 -63 -38 -67 -38 -5 0 -32 -18 -61 -40 -87 -66
-154 -85 -288 -84 -97 0 -128 4 -194 27 -83 27 -96 27 -96 -2 0 -37 91 -99
184 -126 73 -21 246 -16 316 9 38 13 42 13 26 1 -65 -50 -235 -82 -350 -66
-194 27 -446 172 -446 257 0 14 9 46 21 71 l21 46 -80 79 c-44 43 -97 106
-118 139 -40 61 -53 69 -74 44 -17 -21 -7 -88 25 -167 l26 -63 -56 55 c-69 67
-126 162 -154 254 -16 53 -21 95 -21 190 0 145 -10 173 -50 131 -14 -14 -31
-54 -41 -93 -16 -63 -17 -65 -25 -37 -10 34 -11 213 -2 350 6 97 41 214 104
354 117 255 341 470 576 552 110 38 120 38 136 -8z m712 -1952 c0 -5 -9 -19
-19 -32 -18 -23 -20 -23 -27 -5 -5 13 -1 23 11 32 22 16 35 18 35 5z"/>
</g>
</svg>
