<svg width="24" height="18" viewBox="0 0 24 18" fill="none" xmlns="http://www.w3.org/2000/svg">
    <path d="M10.8016 14.7699C10.8939 14.77 10.9853 14.7883 11.0706 14.8238C11.1558 14.8592 11.2332 14.9111 11.2984 14.9765C11.3636 15.0419 11.4153 15.1194 11.4505 15.2048C11.4857 15.2901 11.5037 15.3816 11.5036 15.4739C11.5035 15.5662 11.4852 15.6576 11.4497 15.7428C11.4143 15.8281 11.3624 15.9055 11.297 15.9707C11.2316 16.0359 11.1541 16.0875 11.0687 16.1228C10.9834 16.158 10.8919 16.176 10.7996 16.1759C10.6132 16.1756 10.4345 16.1013 10.3028 15.9693C10.1712 15.8372 10.0974 15.6583 10.0976 15.4719C10.0979 15.2854 10.1722 15.1067 10.3042 14.9751C10.4363 14.8434 10.6152 14.7696 10.8016 14.7699ZM21.8256 10.4229C21.7333 10.4228 21.6419 10.4046 21.5566 10.3692C21.4714 10.3338 21.3939 10.2819 21.3287 10.2166C21.2634 10.1513 21.2117 10.0738 21.1764 9.98845C21.1412 9.90313 21.1231 9.8117 21.1231 9.71938C21.1232 9.62706 21.1414 9.53566 21.1768 9.45039C21.2122 9.36513 21.264 9.28767 21.3294 9.22243C21.3947 9.1572 21.4722 9.10547 21.5576 9.0702C21.6429 9.03493 21.7343 9.01682 21.8266 9.01688C22.0131 9.01701 22.1918 9.09121 22.3236 9.22314C22.4553 9.35507 22.5292 9.53393 22.5291 9.72038C22.529 9.90683 22.4548 10.0856 22.3229 10.2173C22.1909 10.3491 22.0121 10.423 21.8256 10.4229ZM21.8256 7.54688C21.2492 7.54741 20.6965 7.77663 20.2889 8.18422C19.8814 8.59181 19.6521 9.14446 19.6516 9.72088C19.6516 9.95388 19.6906 10.1859 19.7666 10.4119L12.5856 14.2349C12.3865 13.9458 12.1201 13.7094 11.8093 13.5462C11.4985 13.3829 11.1527 13.2977 10.8016 13.2979C9.97262 13.2979 9.21762 13.7729 8.85162 14.5139L2.40062 11.1119C1.71862 10.7539 1.20862 9.63188 1.26262 8.60988C1.29062 8.07688 1.47462 7.66288 1.75562 7.50288C1.93362 7.40288 2.14762 7.41088 2.37562 7.52988L2.41762 7.55288C4.12762 8.45288 9.72162 11.3999 9.95762 11.5089C10.3206 11.6779 10.5226 11.7459 11.1426 11.4519L22.7066 5.43788C22.8766 5.37388 23.0746 5.21088 23.0746 4.96388C23.0746 4.62188 22.7206 4.48688 22.7196 4.48688C22.0616 4.17188 21.0506 3.69888 20.0646 3.23688C17.9566 2.24988 15.5676 1.13188 14.5186 0.581881C13.6126 0.107881 12.8836 0.507882 12.7536 0.587882L12.5016 0.712882C7.77962 3.04788 1.45962 6.17788 1.09962 6.39688C0.456615 6.78888 0.0576154 7.56988 0.00561541 8.53888C-0.0743846 10.0759 0.708615 11.6789 1.82962 12.2659L8.65162 15.7839C8.72677 16.3007 8.98534 16.7731 9.38008 17.115C9.77483 17.4569 10.2794 17.6453 10.8016 17.6459C11.3719 17.6449 11.9191 17.4202 12.3255 17.02C12.7318 16.6198 12.9649 16.0761 12.9746 15.5059L20.4886 11.4329C20.8686 11.7309 21.3416 11.8939 21.8256 11.8939C22.402 11.8934 22.9547 11.6641 23.3623 11.2565C23.7699 10.849 23.9991 10.2963 23.9996 9.71988C23.9991 9.14346 23.7699 8.59081 23.3623 8.18322C22.9547 7.77563 22.402 7.54641 21.8256 7.54588"
          fill="white"/>
</svg>
