<svg width="381" height="314" viewBox="0 0 381 314" fill="none" xmlns="http://www.w3.org/2000/svg">
<path fill-rule="evenodd" clip-rule="evenodd" d="M174.5 24.5C174.5 31.5 174.5 38.5 174.5 45.5C169.286 44.0132 163.952 43.0132 158.5 42.5C156.279 34.6291 154.613 26.6291 153.5 18.5C152.5 18.5 151.5 18.5 150.5 18.5C150.238 17.0222 150.571 15.6888 151.5 14.5C153.026 14.0057 154.359 13.339 155.5 12.5C159.168 10.3225 162.501 7.65582 165.5 4.5C166.689 3.57131 168.022 3.23798 169.5 3.5C172.264 10.2241 173.931 17.2241 174.5 24.5Z" fill="#4F0776"/>
<path fill-rule="evenodd" clip-rule="evenodd" d="M145.5 14.5C149.249 22.2478 151.916 30.4145 153.5 39C153.167 39.8333 152.833 40.6667 152.5 41.5C146.305 27.9792 136.972 17.3125 124.5 9.5C124.866 8.30541 125.699 7.63874 127 7.5C131.672 9.28127 136.172 11.4479 140.5 14C142.134 14.4935 143.801 14.6602 145.5 14.5Z" fill="#4D0672"/>
<path fill-rule="evenodd" clip-rule="evenodd" d="M121.5 10.5C121.833 11.1667 122.167 11.8333 122.5 12.5C121.178 12.33 120.011 12.6634 119 13.5C116.175 19.4496 113.675 25.4496 111.5 31.5C111.337 29.1432 111.503 26.8098 112 24.5C114.035 21.4388 115.201 18.1055 115.5 14.5C116.112 11.3027 118.112 9.9694 121.5 10.5Z" fill="#8C52B3"/>
<path fill-rule="evenodd" clip-rule="evenodd" d="M154.5 19.5C156.462 21.425 157.295 23.7583 157 26.5C155.589 24.3496 154.755 22.0163 154.5 19.5Z" fill="#B783C8"/>
<path fill-rule="evenodd" clip-rule="evenodd" d="M155.5 12.5C154.359 13.339 153.026 14.0057 151.5 14.5C150.571 15.6888 150.238 17.0222 150.5 18.5C151.5 18.5 152.5 18.5 153.5 18.5C154.613 26.6291 156.279 34.6291 158.5 42.5C157.25 42.4226 156.417 41.756 156 40.5C154.98 35.0871 153.647 29.7538 152 24.5C149.676 21.5201 148.176 18.1867 147.5 14.5C149.993 13.2264 152.659 12.5597 155.5 12.5Z" fill="#35074E"/>
<path fill-rule="evenodd" clip-rule="evenodd" d="M109.5 23.5C108.317 27.4228 107.317 31.4228 106.5 35.5C105.145 32.7891 103.811 30.1224 102.5 27.5C104.663 25.9172 106.996 24.5839 109.5 23.5Z" fill="#3A0853"/>
<path fill-rule="evenodd" clip-rule="evenodd" d="M101.5 28.5C102.167 30.5 102.833 32.5 103.5 34.5C102.029 32.9685 100.196 31.9685 98 31.5C93.148 32.437 88.3146 33.437 83.5 34.5C82.9106 37.6404 82.2439 40.6404 81.5 43.5C81.2108 39.8936 81.5442 36.3936 82.5 33C88.8125 31.3383 95.1458 29.8383 101.5 28.5Z" fill="#3C0959"/>
<path fill-rule="evenodd" clip-rule="evenodd" d="M204.5 29.5C202.143 29.3367 199.81 29.5034 197.5 30C195.297 32.3722 192.963 34.5389 190.5 36.5C192.603 31.8985 196.103 28.8985 201 27.5C202.699 27.3866 203.866 28.0532 204.5 29.5Z" fill="#704689"/>
<path fill-rule="evenodd" clip-rule="evenodd" d="M103.5 34.5C106.549 39.6588 108.216 45.3255 108.5 51.5C101.205 52.6492 94.8715 55.6492 89.5 60.5C88.6236 60.6309 87.9569 60.2975 87.5 59.5C88.3629 58.2736 88.3629 56.9403 87.5 55.5C86.8524 52.6772 85.1858 51.1772 82.5 51C83.3805 51.7083 84.0472 52.5416 84.5 53.5C83.2073 54.6448 82.0407 54.3115 81 52.5C80.9822 50.2028 81.1489 47.8695 81.5 45.5C81.5 44.8333 81.5 44.1667 81.5 43.5C82.2439 40.6404 82.9106 37.6404 83.5 34.5C88.3146 33.437 93.148 32.437 98 31.5C100.196 31.9685 102.029 32.9685 103.5 34.5Z" fill="#500578"/>
<path fill-rule="evenodd" clip-rule="evenodd" d="M115.5 14.5C115.201 18.1055 114.035 21.4388 112 24.5C111.503 26.8098 111.337 29.1432 111.5 31.5C111.5 32.1667 111.5 32.8333 111.5 33.5C110.515 37.6344 110.182 41.9677 110.5 46.5C109.335 38.9867 109.335 31.32 110.5 23.5C111.899 20.3707 113.565 17.3707 115.5 14.5Z" fill="#6F458C"/>
<path fill-rule="evenodd" clip-rule="evenodd" d="M204.5 29.5C206.213 32.86 207.88 36.1933 209.5 39.5C208.5 39.5 207.5 39.5 206.5 39.5C201.316 37.6916 196.649 38.5249 192.5 42C193 42.1667 193.5 42.3333 194 42.5C196.434 41.6777 198.934 41.3444 201.5 41.5C200.167 42.1667 198.833 42.8333 197.5 43.5C189.49 46.5248 184.49 52.1914 182.5 60.5C181.635 57.2988 180.302 54.2988 178.5 51.5C180.518 52.9326 182.185 52.5992 183.5 50.5C186.68 46.3019 189.014 41.6352 190.5 36.5C192.963 34.5389 195.297 32.3722 197.5 30C199.81 29.5034 202.143 29.3367 204.5 29.5Z" fill="#B26AE1"/>
<path fill-rule="evenodd" clip-rule="evenodd" d="M124.5 9.5C136.972 17.3125 146.305 27.9792 152.5 41.5C152.833 40.6667 153.167 39.8333 153.5 39C151.916 30.4145 149.249 22.2478 145.5 14.5C146.167 14.5 146.833 14.5 147.5 14.5C148.176 18.1867 149.676 21.5201 152 24.5C153.647 29.7538 154.98 35.0871 156 40.5C156.417 41.756 157.25 42.4226 158.5 42.5C163.952 43.0132 169.286 44.0132 174.5 45.5C174.5 38.5 174.5 31.5 174.5 24.5C175.492 32.3159 175.826 40.3159 175.5 48.5C167.428 45.6195 159.095 44.2862 150.5 44.5C145.749 29.7531 136.415 19.0865 122.5 12.5C122.167 11.8333 121.833 11.1667 121.5 10.5C122.609 10.4431 123.609 10.1098 124.5 9.5Z" fill="#190823"/>
<path fill-rule="evenodd" clip-rule="evenodd" d="M139.5 39.5C139.953 40.4584 140.619 41.2917 141.5 42C141.167 42.1667 140.833 42.3333 140.5 42.5C130.3 38.1073 122.633 40.774 117.5 50.5C116.4 51.6049 115.733 52.9382 115.5 54.5C114.732 55.2625 114.232 56.2625 114 57.5C113.505 54.4686 113.671 51.4686 114.5 48.5C119.425 40.7043 126.425 37.2043 135.5 38C136.745 38.7914 138.078 39.2914 139.5 39.5Z" fill="#190E20"/>
<path fill-rule="evenodd" clip-rule="evenodd" d="M190.5 36.5C189.014 41.6352 186.68 46.3019 183.5 50.5C183.958 44.7294 186.292 40.0627 190.5 36.5Z" fill="#70428E"/>
<path fill-rule="evenodd" clip-rule="evenodd" d="M204.5 29.5C208.662 33.0013 211.662 37.3346 213.5 42.5C213.672 43.4916 213.338 44.1583 212.5 44.5C210.869 42.3567 208.869 40.69 206.5 39.5C207.5 39.5 208.5 39.5 209.5 39.5C207.88 36.1933 206.213 32.86 204.5 29.5Z" fill="#985FBD"/>
<path fill-rule="evenodd" clip-rule="evenodd" d="M206.5 39.5C208.869 40.69 210.869 42.3567 212.5 44.5C214.188 46.4767 214.521 48.4767 213.5 50.5C210.664 46.0031 206.664 43.0031 201.5 41.5C198.934 41.3444 196.434 41.6777 194 42.5C193.5 42.3333 193 42.1667 192.5 42C196.649 38.5249 201.316 37.6916 206.5 39.5Z" fill="#1A0F21"/>
<path fill-rule="evenodd" clip-rule="evenodd" d="M201.5 41.5C206.664 43.0031 210.664 46.0031 213.5 50.5C214.09 51.766 214.59 53.0993 215 54.5C215.198 52.6183 215.698 50.9516 216.5 49.5C217.601 55.6559 217.601 61.6559 216.5 67.5C216.824 63.4454 216.491 59.4454 215.5 55.5C214.833 59.3125 214.166 62.9792 213.5 66.5C215.461 56.8593 212.461 49.3593 204.5 44C202.19 43.5034 199.857 43.3367 197.5 43.5C198.833 42.8333 200.167 42.1667 201.5 41.5Z" fill="#8254A4"/>
<path fill-rule="evenodd" clip-rule="evenodd" d="M122.5 12.5C136.415 19.0865 145.749 29.7531 150.5 44.5C159.095 44.2862 167.428 45.6195 175.5 48.5C176.694 49.2719 177.694 50.2719 178.5 51.5C180.302 54.2988 181.635 57.2988 182.5 60.5C181.26 65.8919 179.927 71.3919 178.5 77C179.454 83.9328 183.12 88.2661 189.5 90C187.333 87.8333 185.167 85.6667 183 83.5C181.772 79.1411 182.605 78.1411 185.5 80.5C186.585 82.5869 188.251 83.9202 190.5 84.5C195.113 87.1857 199.78 87.019 204.5 84C210.29 79.5859 213.29 73.7526 213.5 66.5C214.166 62.9792 214.833 59.3125 215.5 55.5C216.491 59.4454 216.824 63.4454 216.5 67.5C215.905 71.6148 214.905 75.6148 213.5 79.5C219.654 79.1004 225.654 79.7671 231.5 81.5C235.965 83.9016 240.298 86.5683 244.5 89.5C252.785 98.5536 254.785 108.887 250.5 120.5C249.596 119.791 249.263 118.791 249.5 117.5C248.178 117.33 247.011 117.663 246 118.5C245.457 120.631 244.624 122.631 243.5 124.5C241.684 125.815 240.017 127.315 238.5 129C239.833 129.667 241.167 129.667 242.5 129C243.509 126.828 245.176 125.662 247.5 125.5C246.409 128.428 244.409 130.594 241.5 132C238.167 133.333 234.833 134.667 231.5 136C224.167 136.667 216.833 136.667 209.5 136C206.733 134.917 204.067 133.75 201.5 132.5C200.833 132.167 200.167 131.833 199.5 131.5C196.133 128.494 192.133 127.16 187.5 127.5C187.665 124.482 187.498 121.482 187 118.5C185.981 117.313 184.814 116.313 183.5 115.5C182.614 116.325 182.281 117.325 182.5 118.5C180.891 121.53 178.891 124.363 176.5 127C175.251 127.74 174.251 127.573 173.5 126.5C173.279 125.265 172.612 124.265 171.5 123.5C169 123.167 166.5 122.833 164 122.5C157.842 123.045 151.675 123.378 145.5 123.5C144.448 123.649 143.448 123.483 142.5 123C136.855 117.023 130.855 111.357 124.5 106C113.828 100.836 108.161 104.169 107.5 116C107.935 121.459 109.268 126.626 111.5 131.5C115.084 140.751 121.417 147.418 130.5 151.5C130.426 159.454 131.926 167.12 135 174.5C141.236 183.501 144.403 193.501 144.5 204.5C145.221 207.817 145.388 211.151 145 214.5C140.537 217.124 137.371 220.79 135.5 225.5C135.369 226.239 135.536 226.906 136 227.5C142.789 220.856 150.622 215.856 159.5 212.5C165.634 210.956 171.634 211.29 177.5 213.5C173.735 223.122 172.568 233.122 174 243.5C174.232 244.737 174.732 245.737 175.5 246.5C176.829 251.642 178.495 256.642 180.5 261.5C165.911 263.493 151.244 263.993 136.5 263C133.475 262.867 130.808 261.867 128.5 260C123.129 251.757 118.962 242.924 116 233.5C113.414 220.291 111.914 206.958 111.5 193.5C111.5 192.5 111.5 191.5 111.5 190.5C111.539 189.244 111.039 188.244 110 187.5C106.188 206.398 107.522 225.064 114 243.5C115.161 246.185 116.994 248.185 119.5 249.5C119.5 252.5 119.5 255.5 119.5 258.5C117.095 258.134 114.762 257.467 112.5 256.5C111.584 256.543 110.917 256.876 110.5 257.5C109.094 257.973 108.427 258.973 108.5 260.5C103.559 258.558 99.8922 255.225 97.5 250.5C91.6986 241.456 87.0319 231.79 83.5 221.5C83.4346 221.062 83.6012 220.728 84 220.5C85.7134 221.878 87.0467 223.545 88 225.5C88.1667 225 88.3333 224.5 88.5 224C87.195 219.902 85.5283 216.068 83.5 212.5C83.5 210.5 83.5 208.5 83.5 206.5C83.8293 200.463 83.4959 194.463 82.5 188.5C81.914 188.709 81.414 189.043 81 189.5C80.6667 193.167 80.3333 196.833 80 200.5C79.6393 197.475 79.1393 194.475 78.5 191.5C79.2899 186.75 80.2899 182.084 81.5 177.5C83.3261 171.537 85.1594 165.537 87 159.5C87.1667 156.667 87.3333 153.833 87.5 151C85.7402 138.787 83.5736 126.62 81 114.5C80.5008 109.845 80.3342 105.179 80.5 100.5C81.358 94.9834 82.1914 89.3168 83 83.5C84.7608 77.3908 86.5942 71.3908 88.5 65.5C90.9626 61.6998 94.296 59.0332 98.5 57.5C99.4959 57.4142 100.329 57.7476 101 58.5C101.991 57.0611 103.324 56.0611 105 55.5C105.354 57.8075 106.354 58.1408 108 56.5C109.914 57.0795 111.581 58.0795 113 59.5C115.157 58.615 115.99 56.9484 115.5 54.5C116.65 53.1498 117.317 53.3164 117.5 55C115.406 64.712 117.073 73.712 122.5 82C123.901 82.4101 125.234 82.9101 126.5 83.5C132.556 88.6205 139.222 89.6205 146.5 86.5C148.044 86.2969 149.378 85.6302 150.5 84.5C150.833 84.8333 151.167 85.1667 151.5 85.5C149.976 87.8579 147.976 89.6912 145.5 91C152.417 89.747 156.251 85.5803 157 78.5C156 79.1667 155 79.8333 154 80.5C153.505 78.5273 153.338 76.5273 153.5 74.5C154.75 62.2217 150.416 52.5551 140.5 45.5C139.34 43.7973 140.007 43.1307 142.5 43.5C142.912 41.0274 141.912 39.6941 139.5 39.5C138.078 39.2914 136.745 38.7914 135.5 38C126.425 37.2043 119.425 40.7043 114.5 48.5C113.504 48.5858 112.671 48.2524 112 47.5C111.501 42.8452 111.334 38.1785 111.5 33.5C111.5 32.8333 111.5 32.1667 111.5 31.5C113.675 25.4496 116.175 19.4496 119 13.5C120.011 12.6634 121.178 12.33 122.5 12.5Z" fill="#BC6FF1"/>
<path fill-rule="evenodd" clip-rule="evenodd" d="M197.5 43.5C199.857 43.3367 202.19 43.5034 204.5 44C212.461 49.3593 215.461 56.8593 213.5 66.5C213.29 73.7526 210.29 79.5859 204.5 84C199.78 87.019 195.113 87.1857 190.5 84.5C189.167 82.5 187.5 80.8333 185.5 79.5C183.009 73.5176 182.009 67.1843 182.5 60.5C184.49 52.1914 189.49 46.5248 197.5 43.5Z" fill="#1D1522"/>
<path fill-rule="evenodd" clip-rule="evenodd" d="M139.5 39.5C141.912 39.6941 142.912 41.0274 142.5 43.5C140.007 43.1307 139.34 43.7973 140.5 45.5C136.22 44.4604 131.887 44.2938 127.5 45C125.004 46.331 123.004 48.1644 121.5 50.5C120.298 51.4054 118.964 51.4054 117.5 50.5C122.633 40.774 130.3 38.1073 140.5 42.5C140.833 42.3333 141.167 42.1667 141.5 42C140.619 41.2917 139.953 40.4584 139.5 39.5Z" fill="#A666D0"/>
<path fill-rule="evenodd" clip-rule="evenodd" d="M203.5 46.5C207.153 47.9894 209.653 50.6561 211 54.5C213.752 64.2542 211.919 73.0875 205.5 81C201.793 84.0883 197.793 84.9217 193.5 83.5C193.5 82.8333 193.833 82.5 194.5 82.5C204.742 81.3819 208.575 75.7152 206 65.5C202.134 60.5841 197.801 60.2508 193 64.5C191.441 66.2166 190.608 68.2166 190.5 70.5C189.691 72.2922 189.191 74.2922 189 76.5C184.136 65.0881 186.636 55.5881 196.5 48C198.677 46.7978 201.011 46.2978 203.5 46.5Z" fill="#F1F2F1"/>
<path fill-rule="evenodd" clip-rule="evenodd" d="M213.5 42.5C214.677 44.6794 215.677 47.0128 216.5 49.5C215.698 50.9516 215.198 52.6183 215 54.5C214.59 53.0993 214.09 51.766 213.5 50.5C214.521 48.4767 214.188 46.4767 212.5 44.5C213.338 44.1583 213.672 43.4916 213.5 42.5Z" fill="#483167"/>
<path fill-rule="evenodd" clip-rule="evenodd" d="M203.5 46.5C201.011 46.2978 198.677 46.7978 196.5 48C186.636 55.5881 184.136 65.0881 189 76.5C189.191 74.2922 189.691 72.2922 190.5 70.5C189.742 75.2709 191.075 79.2709 194.5 82.5C193.833 82.5 193.5 82.8333 193.5 83.5C189.745 81.2278 187.245 77.8945 186 73.5C183.019 61.6604 186.519 52.4937 196.5 46C199.039 45.2042 201.372 45.3709 203.5 46.5Z" fill="#A8A8A8"/>
<path fill-rule="evenodd" clip-rule="evenodd" d="M111.5 33.5C111.334 38.1785 111.501 42.8452 112 47.5C112.671 48.2524 113.504 48.5858 114.5 48.5C113.671 51.4686 113.505 54.4686 114 57.5C114.232 56.2625 114.732 55.2625 115.5 54.5C115.99 56.9484 115.157 58.615 113 59.5C111.581 58.0795 109.914 57.0795 108 56.5C106.354 58.1408 105.354 57.8075 105 55.5C103.324 56.0611 101.991 57.0611 101 58.5C100.329 57.7476 99.4959 57.4142 98.5 57.5C101.891 54.5619 105.724 53.8953 110 55.5C110.498 52.5184 110.665 49.5184 110.5 46.5C110.182 41.9677 110.515 37.6344 111.5 33.5Z" fill="#A263CE"/>
<path fill-rule="evenodd" clip-rule="evenodd" d="M81.5 45.5C81.1489 47.8695 80.9822 50.2028 81 52.5C82.0407 54.3115 83.2073 54.6448 84.5 53.5C85.5 54.1667 86.5 54.8333 87.5 55.5C88.3629 56.9403 88.3629 58.2736 87.5 59.5C87.9569 60.2975 88.6236 60.6309 89.5 60.5C88.7494 61.5735 87.7494 61.7401 86.5 61C84.7068 58.2047 82.5402 55.7047 80 53.5C79.5172 52.552 79.3505 51.552 79.5 50.5C79.4021 48.4471 80.0687 46.7804 81.5 45.5Z" fill="#3E0A58"/>
<path fill-rule="evenodd" clip-rule="evenodd" d="M117.5 50.5C118.964 51.4054 120.298 51.4054 121.5 50.5C121.315 52.1958 120.481 53.5291 119 54.5C118.333 59.1667 118.333 63.8333 119 68.5C120.846 73.9021 123.346 78.9021 126.5 83.5C125.234 82.9101 123.901 82.4101 122.5 82C117.073 73.712 115.406 64.712 117.5 55C117.317 53.3164 116.65 53.1498 115.5 54.5C115.733 52.9382 116.4 51.6049 117.5 50.5Z" fill="#7F4CA2"/>
<path fill-rule="evenodd" clip-rule="evenodd" d="M194.5 82.5C191.075 79.2709 189.742 75.2709 190.5 70.5C190.608 68.2166 191.441 66.2166 193 64.5C197.801 60.2508 202.134 60.5841 206 65.5C208.575 75.7152 204.742 81.3819 194.5 82.5Z" fill="#121212"/>
<path fill-rule="evenodd" clip-rule="evenodd" d="M197.5 65.5C202.068 65.0826 203.568 67.0826 202 71.5C198.828 74.3883 196.661 73.7216 195.5 69.5C195.752 67.9271 196.418 66.5938 197.5 65.5Z" fill="#E6E6E6"/>
<path fill-rule="evenodd" clip-rule="evenodd" d="M77.5 55.5C81.734 57.2424 84.4007 60.409 85.5 65C80.4334 71.303 77.1001 78.4697 75.5 86.5C73.9547 87.4519 72.288 87.7852 70.5 87.5C68.8768 81.6002 68.3768 75.6002 69 69.5C72.6114 65.2721 75.4447 60.6054 77.5 55.5Z" fill="#4D0674"/>
<path fill-rule="evenodd" clip-rule="evenodd" d="M153.5 74.5C153.338 76.5273 153.505 78.5273 154 80.5C155 79.8333 156 79.1667 157 78.5C156.251 85.5803 152.417 89.747 145.5 91C147.976 89.6912 149.976 87.8579 151.5 85.5C151.167 85.1667 150.833 84.8333 150.5 84.5C149.378 85.6302 148.044 86.2969 146.5 86.5C149.89 83.0447 152.223 79.0447 153.5 74.5Z" fill="#A35FCF"/>
<path fill-rule="evenodd" clip-rule="evenodd" d="M185.5 79.5C187.5 80.8333 189.167 82.5 190.5 84.5C188.251 83.9202 186.585 82.5869 185.5 80.5C185.5 80.1667 185.5 79.8333 185.5 79.5Z" fill="#5F377B"/>
<path fill-rule="evenodd" clip-rule="evenodd" d="M140.5 45.5C150.416 52.5551 154.75 62.2217 153.5 74.5C152.223 79.0447 149.89 83.0447 146.5 86.5C139.222 89.6205 132.556 88.6205 126.5 83.5C123.346 78.9021 120.846 73.9021 119 68.5C118.333 63.8333 118.333 59.1667 119 54.5C120.481 53.5291 121.315 52.1958 121.5 50.5C123.004 48.1644 125.004 46.331 127.5 45C131.887 44.2938 136.22 44.4604 140.5 45.5Z" fill="#19141D"/>
<path fill-rule="evenodd" clip-rule="evenodd" d="M126.5 48.5C123.901 54.9175 123.067 61.5842 124 68.5C125.569 73.2997 127.403 77.9664 129.5 82.5C122.391 75.3376 119.557 66.6709 121 56.5C122.116 53.2444 123.949 50.5777 126.5 48.5Z" fill="#A7A7A7"/>
<path fill-rule="evenodd" clip-rule="evenodd" d="M129.5 82.5C127.403 77.9664 125.569 73.2997 124 68.5C123.067 61.5842 123.901 54.9175 126.5 48.5C131.446 45.7983 136.446 45.965 141.5 49C150.815 56.9462 153.648 66.7796 150 78.5C144.592 87.3175 137.758 88.6508 129.5 82.5Z" fill="#F1F1F1"/>
<path fill-rule="evenodd" clip-rule="evenodd" d="M133.5 60.5C145.624 60.3553 150.457 66.3553 148 78.5C145.459 83.0685 141.625 84.5685 136.5 83C129.748 78.4089 127.581 72.2422 130 64.5C131.376 63.2949 132.542 61.9616 133.5 60.5Z" fill="#0F0F0F"/>
<path fill-rule="evenodd" clip-rule="evenodd" d="M132.5 72.5C134.337 72.6395 134.67 73.3061 133.5 74.5C132.702 74.0431 132.369 73.3764 132.5 72.5Z" fill="#9D9D9D"/>
<path fill-rule="evenodd" clip-rule="evenodd" d="M131.5 68.5C133.337 68.6395 133.67 69.3061 132.5 70.5C131.702 70.0431 131.369 69.3764 131.5 68.5Z" fill="#959595"/>
<path fill-rule="evenodd" clip-rule="evenodd" d="M137.5 63.5C139.722 63.178 141.556 63.8446 143 65.5C144.802 73.7231 142.469 75.3898 136 70.5C135.167 67.829 135.667 65.4957 137.5 63.5Z" fill="#E5E5E5"/>
<path fill-rule="evenodd" clip-rule="evenodd" d="M109.5 23.5C109.833 23.5 110.167 23.5 110.5 23.5C109.335 31.32 109.335 38.9867 110.5 46.5C110.665 49.5184 110.498 52.5184 110 55.5C105.724 53.8953 101.891 54.5619 98.5 57.5C94.296 59.0332 90.9626 61.6998 88.5 65.5C85.0818 68.4393 82.5818 72.106 81 76.5C75.7124 91.0319 74.0458 106.032 76 121.5C76.8353 127.177 77.6686 132.844 78.5 138.5C76.7345 135.877 76.0679 132.877 76.5 129.5C75.1667 129.5 73.8333 129.5 72.5 129.5C72.5 128.5 72.5 127.5 72.5 126.5C73.493 118.016 73.8264 109.349 73.5 100.5C73.665 97.1501 73.4983 93.8168 73 90.5C72.3292 89.7476 71.4959 89.4142 70.5 89.5C70.5 88.8333 70.5 88.1667 70.5 87.5C72.288 87.7852 73.9547 87.4519 75.5 86.5C77.1001 78.4697 80.4334 71.303 85.5 65C84.4007 60.409 81.734 57.2424 77.5 55.5C78.0241 53.6943 78.6908 52.0276 79.5 50.5C79.3505 51.552 79.5172 52.552 80 53.5C82.5402 55.7047 84.7068 58.2047 86.5 61C87.7494 61.7401 88.7494 61.5735 89.5 60.5C94.8715 55.6492 101.205 52.6492 108.5 51.5C108.216 45.3255 106.549 39.6588 103.5 34.5C102.833 32.5 102.167 30.5 101.5 28.5C101.5 27.8333 101.833 27.5 102.5 27.5C103.811 30.1224 105.145 32.7891 106.5 35.5C107.317 31.4228 108.317 27.4228 109.5 23.5Z" fill="#15061B"/>
<path fill-rule="evenodd" clip-rule="evenodd" d="M87.5 55.5C86.5 54.8333 85.5 54.1667 84.5 53.5C84.0472 52.5416 83.3805 51.7083 82.5 51C85.1858 51.1772 86.8524 52.6772 87.5 55.5Z" fill="#A86EC3"/>
<path fill-rule="evenodd" clip-rule="evenodd" d="M240.5 81.5C244.441 82.699 246.108 85.0323 245.5 88.5C243.087 86.1128 240.42 83.9461 237.5 82C238.448 81.5172 239.448 81.3505 240.5 81.5Z" fill="#9961BB"/>
<path fill-rule="evenodd" clip-rule="evenodd" d="M182.5 60.5C182.009 67.1843 183.009 73.5176 185.5 79.5C185.5 79.8333 185.5 80.1667 185.5 80.5C182.605 78.1411 181.772 79.1411 183 83.5C185.167 85.6667 187.333 87.8333 189.5 90C183.12 88.2661 179.454 83.9328 178.5 77C179.927 71.3919 181.26 65.8919 182.5 60.5Z" fill="#9754C2"/>
<path fill-rule="evenodd" clip-rule="evenodd" d="M240.5 81.5C239.448 81.3505 238.448 81.5172 237.5 82C240.42 83.9461 243.087 86.1128 245.5 88.5C244.833 88.5 244.5 88.8333 244.5 89.5C240.298 86.5683 235.965 83.9016 231.5 81.5C234.673 80.6317 237.673 80.6317 240.5 81.5Z" fill="#21142E"/>
<path fill-rule="evenodd" clip-rule="evenodd" d="M106.5 59.5C107.673 74.6989 115.006 86.0323 128.5 93.5C128 93.8333 127.5 94.1667 127 94.5C111.467 87.8255 104.634 76.1588 106.5 59.5Z" fill="#8A4CB3"/>
<path fill-rule="evenodd" clip-rule="evenodd" d="M310.5 109.5C309.662 109.158 309.328 108.492 309.5 107.5C310.525 101.873 311.358 96.2065 312 90.5C313.94 92.0454 315.106 94.0454 315.5 96.5C313.539 100.749 311.872 105.083 310.5 109.5Z" fill="#D1D1D1"/>
<path fill-rule="evenodd" clip-rule="evenodd" d="M88.5 65.5C86.5942 71.3908 84.7608 77.3908 83 83.5C82.1914 89.3168 81.358 94.9834 80.5 100.5C78.8624 104.876 78.0291 109.542 78 114.5C77.2644 109.134 77.4311 103.8 78.5 98.5C78.263 95.9365 77.763 95.9365 77 98.5C76.1158 105.582 76.4492 112.582 78 119.5C78.9147 118.672 79.5814 117.672 80 116.5C80.6667 118.833 80.6667 121.167 80 123.5C78.6166 120.924 77.7833 121.258 77.5 124.5C78.5 132.5 79.5 132.5 80.5 124.5C80.8333 125 81.1667 125.5 81.5 126C82.2071 129.822 82.8738 133.655 83.5 137.5C83.1667 138.167 82.8333 138.833 82.5 139.5C80.5959 135.556 79.5959 135.89 79.5 140.5C78.6618 140.158 78.3284 139.492 78.5 138.5C77.6686 132.844 76.8353 127.177 76 121.5C74.0458 106.032 75.7124 91.0319 81 76.5C82.5818 72.106 85.0818 68.4393 88.5 65.5Z" fill="#7C499C"/>
<path fill-rule="evenodd" clip-rule="evenodd" d="M212.5 103.5C214.167 103.5 215.833 103.5 217.5 103.5C217.849 109.02 215.183 111.354 209.5 110.5C209.15 107.547 210.15 105.213 212.5 103.5Z" fill="#140B19"/>
<path fill-rule="evenodd" clip-rule="evenodd" d="M209.5 94.5C216.985 93.5387 221.485 96.5387 223 103.5C217.988 96.7568 211.988 95.7568 205 100.5C204.667 101.5 204.333 102.5 204 103.5C203.575 106.672 203.909 109.672 205 112.5C199.637 104.869 201.137 98.8689 209.5 94.5Z" fill="#23142F"/>
<path fill-rule="evenodd" clip-rule="evenodd" d="M70.5 89.5C71.4959 89.4142 72.3292 89.7476 73 90.5C73.4983 93.8168 73.665 97.1501 73.5 100.5C72.8334 107.345 72.1667 114.345 71.5 121.5C70.2848 118.664 68.6182 116.164 66.5 114C65.7665 112.234 65.4332 110.401 65.5 108.5C67.6589 102.193 69.3256 95.8593 70.5 89.5Z" fill="#4F0874"/>
<path fill-rule="evenodd" clip-rule="evenodd" d="M300.5 117.5C299.542 117.953 298.708 118.619 298 119.5C297.536 118.906 297.369 118.239 297.5 117.5C300.022 97.696 301.022 97.696 300.5 117.5Z" fill="#DCDCDC"/>
<path fill-rule="evenodd" clip-rule="evenodd" d="M309.5 107.5C309.328 108.492 309.662 109.158 310.5 109.5C309.367 112.738 308.533 116.071 308 119.5C307.202 115.219 307.702 111.219 309.5 107.5Z" fill="#8C8C8C"/>
<path fill-rule="evenodd" clip-rule="evenodd" d="M73.5 100.5C73.8264 109.349 73.493 118.016 72.5 126.5C70.1594 122.502 67.3261 118.836 64 115.5C63.3333 113.5 63.3333 111.5 64 109.5C64.3826 108.944 64.8826 108.611 65.5 108.5C65.4332 110.401 65.7665 112.234 66.5 114C68.6182 116.164 70.2848 118.664 71.5 121.5C72.1667 114.345 72.8334 107.345 73.5 100.5Z" fill="#350850"/>
<path fill-rule="evenodd" clip-rule="evenodd" d="M297.5 117.5C297.369 118.239 297.536 118.906 298 119.5C298.708 118.619 299.542 117.953 300.5 117.5C298.623 122.925 296.456 128.259 294 133.5C293.116 127.64 294.282 122.307 297.5 117.5Z" fill="#9C9C9C"/>
<path fill-rule="evenodd" clip-rule="evenodd" d="M250.5 120.5C250.167 121.833 249.833 123.167 249.5 124.5C248.833 124.833 248.167 125.167 247.5 125.5C245.176 125.662 243.509 126.828 242.5 129C241.167 129.667 239.833 129.667 238.5 129C240.017 127.315 241.684 125.815 243.5 124.5C244.624 122.631 245.457 120.631 246 118.5C247.011 117.663 248.178 117.33 249.5 117.5C249.263 118.791 249.596 119.791 250.5 120.5Z" fill="#C582E9"/>
<path fill-rule="evenodd" clip-rule="evenodd" d="M125.5 112.5C123.425 118.61 124.592 123.943 129 128.5C129.809 124.604 131.143 120.937 133 117.5C134.815 119.405 136.815 121.072 139 122.5C139.333 126.833 139.667 131.167 140 135.5C141.516 138.051 142.349 137.718 142.5 134.5C143.921 131.991 145.588 129.657 147.5 127.5C150.5 127.5 153.5 127.5 156.5 127.5C156.205 129.735 156.539 131.735 157.5 133.5C157.284 135.681 158.117 137.347 160 138.5C161.197 135.911 162.197 133.244 163 130.5C164.389 128.773 166.056 127.439 168 126.5C170.954 128.393 174.121 129.893 177.5 131C184.208 130.677 190.875 130.843 197.5 131.5C197.611 132.117 197.944 132.617 198.5 133C194.565 133.084 190.898 134.084 187.5 136C184.798 138.995 181.798 141.495 178.5 143.5C159.141 150.102 140.475 148.602 122.5 139C116.334 134.515 112.167 128.681 110 121.5C109.245 117.745 109.411 114.078 110.5 110.5C114.866 106.81 119.532 106.644 124.5 110C125.252 110.671 125.586 111.504 125.5 112.5Z" fill="#C4BAC9"/>
<path fill-rule="evenodd" clip-rule="evenodd" d="M38.5 121.5C39.8333 123.167 41.1667 124.833 42.5 126.5C41.1201 126.962 40.4534 127.962 40.5 129.5C43.1406 142.505 43.1406 155.505 40.5 168.5C45.3167 169.167 49.9834 169.834 54.5 170.5C49.4889 170.666 44.4889 170.499 39.5 170C38.5939 168.301 38.2606 166.467 38.5 164.5C41.2492 148.367 39.2492 132.867 32.5 118C32.6667 117.5 32.8333 117 33 116.5C34.7038 118.373 36.5372 120.04 38.5 121.5Z" fill="#3B0556"/>
<path fill-rule="evenodd" clip-rule="evenodd" d="M45.5 122.5C51.1295 126.794 56.4628 131.461 61.5 136.5C59.9557 136.297 58.6223 135.63 57.5 134.5C56.7025 134.957 56.3691 135.624 56.5 136.5C50.9767 132.158 46.4767 127.158 43 121.5C43.6708 122.252 44.5041 122.586 45.5 122.5Z" fill="#3F095C"/>
<path fill-rule="evenodd" clip-rule="evenodd" d="M42.5 126.5C55.8999 137.396 66.0665 150.729 73 166.5C73.6667 168.5 73.6667 170.5 73 172.5C72.3261 173.578 71.3261 174.245 70 174.5C64.8951 172.853 59.7284 171.519 54.5 170.5C49.9834 169.834 45.3167 169.167 40.5 168.5C43.1406 155.505 43.1406 142.505 40.5 129.5C40.4534 127.962 41.1201 126.962 42.5 126.5Z" fill="#500679"/>
<path fill-rule="evenodd" clip-rule="evenodd" d="M249.5 124.5C247.484 129.688 244.15 133.854 239.5 137C237.235 138.118 234.901 138.951 232.5 139.5C225.025 139.847 217.691 139.181 210.5 137.5C206.716 137.111 203.716 135.444 201.5 132.5C204.067 133.75 206.733 134.917 209.5 136C216.833 136.667 224.167 136.667 231.5 136C234.833 134.667 238.167 133.333 241.5 132C244.409 130.594 246.409 128.428 247.5 125.5C248.167 125.167 248.833 124.833 249.5 124.5Z" fill="#7B489C"/>
<path fill-rule="evenodd" clip-rule="evenodd" d="M210.5 137.5C217.691 139.181 225.025 139.847 232.5 139.5C227.35 140.651 222.016 140.817 216.5 140C214.277 139.434 212.277 138.6 210.5 137.5Z" fill="#533868"/>
<path fill-rule="evenodd" clip-rule="evenodd" d="M48.5 137.5C48.8966 136.475 49.5632 136.308 50.5 137C53.5968 139.391 55.7635 142.224 57 145.5C54.2972 142.629 51.4639 139.962 48.5 137.5Z" fill="#9B5CB6"/>
<path fill-rule="evenodd" clip-rule="evenodd" d="M111.5 131.5C116.655 137.487 122.822 142.153 130 145.5C130.495 147.473 130.662 149.473 130.5 151.5C121.417 147.418 115.084 140.751 111.5 131.5Z" fill="#7B499D"/>
<path fill-rule="evenodd" clip-rule="evenodd" d="M284.5 144.5C286.91 146.589 289.243 148.589 291.5 150.5C291.167 150.5 290.833 150.5 290.5 150.5C287.5 151.5 285.5 153.5 284.5 156.5C278.833 161.167 273.167 165.833 267.5 170.5C265.685 171.63 263.685 172.296 261.5 172.5C268.411 162.585 276.078 153.252 284.5 144.5Z" fill="#FFD700"/>
<path fill-rule="evenodd" clip-rule="evenodd" d="M291.5 150.5C289.243 148.589 286.91 146.589 284.5 144.5C285.923 142.289 287.923 141.455 290.5 142C291.333 144.167 292.833 145.667 295 146.5C295.483 147.448 295.649 148.448 295.5 149.5C294.041 149.433 292.708 149.766 291.5 150.5Z" fill="#132D1E"/>
<path fill-rule="evenodd" clip-rule="evenodd" d="M61.5 136.5C67.489 140.823 72.8223 145.823 77.5 151.5C78.5753 155.994 77.9087 160.327 75.5 164.5C70.153 154.465 63.8197 145.131 56.5 136.5C56.3691 135.624 56.7025 134.957 57.5 134.5C58.6223 135.63 59.9557 136.297 61.5 136.5Z" fill="#4B0670"/>
<path fill-rule="evenodd" clip-rule="evenodd" d="M184.5 147.5C186.153 147.66 187.486 148.326 188.5 149.5C187.252 150.334 186.585 151.667 186.5 153.5C187.491 158.127 188.157 162.794 188.5 167.5C185.082 161.382 183.749 154.715 184.5 147.5Z" fill="#724791"/>
<path fill-rule="evenodd" clip-rule="evenodd" d="M212.5 153.5C219.175 153.334 225.842 153.5 232.5 154C236.43 154.242 240.097 155.075 243.5 156.5C233.032 155.38 222.699 154.38 212.5 153.5Z" fill="#9C64C6"/>
<path fill-rule="evenodd" clip-rule="evenodd" d="M290.5 150.5C288.833 152.833 286.833 154.833 284.5 156.5C285.5 153.5 287.5 151.5 290.5 150.5Z" fill="#8A8A8A"/>
<path fill-rule="evenodd" clip-rule="evenodd" d="M195.5 152.5C201.106 153.407 206.773 153.74 212.5 153.5C222.699 154.38 233.032 155.38 243.5 156.5C249.166 157.501 254.166 159.834 258.5 163.5C257.389 164.611 256.722 165.945 256.5 167.5C256.747 168.713 257.414 169.38 258.5 169.5C258.918 170.222 259.584 170.722 260.5 171C257.335 173.51 255.335 176.676 254.5 180.5C253.178 180.67 252.011 180.337 251 179.5C249.756 176.018 247.756 173.018 245 170.5C241.617 174.147 240.117 178.48 240.5 183.5C235.044 180.725 229.377 178.725 223.5 177.5C223.119 176.069 222.119 175.236 220.5 175C211.328 174.168 202.328 172.501 193.5 170C189.086 164.511 187.753 158.345 189.5 151.5C191.409 152.348 193.409 152.682 195.5 152.5Z" fill="#BA6CEC"/>
<path fill-rule="evenodd" clip-rule="evenodd" d="M45.5 122.5C44.5041 122.586 43.6708 122.252 43 121.5C46.4767 127.158 50.9767 132.158 56.5 136.5C63.8197 145.131 70.153 154.465 75.5 164.5C77.9087 160.327 78.5753 155.994 77.5 151.5C78.5 151.5 79.5 151.5 80.5 151.5C80.1667 148.833 79.8333 146.167 79.5 143.5C81.3371 146.519 81.8371 149.852 81 153.5C78.1511 164.713 74.4844 175.713 70 186.5C68.9952 197.133 70.3286 207.467 74 217.5C77.5154 225.224 81.6821 232.557 86.5 239.5C86.5 240.167 86.1667 240.5 85.5 240.5C79.4618 232.423 74.4618 223.756 70.5 214.5C70.9746 211.677 69.9746 209.677 67.5 208.5C61.981 210.693 57.3143 214.026 53.5 218.5C49.224 221.721 45.8907 225.721 43.5 230.5C42.8761 230.083 42.5427 229.416 42.5 228.5C43.658 224.201 44.658 219.868 45.5 215.5C45.4805 214.274 45.1471 213.274 44.5 212.5C44.7496 211.078 45.583 210.078 47 209.5C47.4988 205.514 47.6655 201.514 47.5 197.5C48.1665 203.014 48.8332 208.681 49.5 214.5C50.2975 214.043 50.6309 213.376 50.5 212.5C55.1352 206.197 60.4685 200.531 66.5 195.5C67.0752 189.752 68.4085 184.252 70.5 179C70.1802 177.347 69.1802 176.347 67.5 176C63.4316 174.106 59.0982 173.273 54.5 173.5C50.3537 172.353 46.0204 172.186 41.5 173C40.5842 173.278 39.9175 173.778 39.5 174.5C38.0277 172.883 37.361 170.883 37.5 168.5C37.5108 166.955 37.8442 165.622 38.5 164.5C38.2606 166.467 38.5939 168.301 39.5 170C44.4889 170.499 49.4889 170.666 54.5 170.5C59.7284 171.519 64.8951 172.853 70 174.5C71.3261 174.245 72.3261 173.578 73 172.5C73.6667 170.5 73.6667 168.5 73 166.5C66.0665 150.729 55.8999 137.396 42.5 126.5C41.1667 124.833 39.8333 123.167 38.5 121.5C41.199 118.754 43.5324 119.087 45.5 122.5Z" fill="#110317"/>
<path fill-rule="evenodd" clip-rule="evenodd" d="M258.5 169.5C257.251 167.171 257.918 165.338 260.5 164C262.259 163.202 263.926 163.369 265.5 164.5C263.957 167.39 261.624 169.057 258.5 169.5Z" fill="#A9A3AD"/>
<path fill-rule="evenodd" clip-rule="evenodd" d="M126.5 153.5C127.405 162.047 129.239 170.38 132 178.5C127.493 170.801 125.66 162.468 126.5 153.5Z" fill="#DB9FF4"/>
<path fill-rule="evenodd" clip-rule="evenodd" d="M188.5 167.5C190.771 169.267 192.938 171.267 195 173.5C201.633 174.539 208.133 175.539 214.5 176.5C207.778 176.71 201.112 176.21 194.5 175C191.183 173.52 189.183 171.02 188.5 167.5Z" fill="#63407D"/>
<path fill-rule="evenodd" clip-rule="evenodd" d="M267.5 170.5C266.08 173.349 264.08 174.016 261.5 172.5C263.685 172.296 265.685 171.63 267.5 170.5Z" fill="#868586"/>
<path fill-rule="evenodd" clip-rule="evenodd" d="M188.5 149.5C190.987 150.323 193.321 151.323 195.5 152.5C193.409 152.682 191.409 152.348 189.5 151.5C187.753 158.345 189.086 164.511 193.5 170C202.328 172.501 211.328 174.168 220.5 175C222.119 175.236 223.119 176.069 223.5 177.5C220.518 177.037 217.518 176.704 214.5 176.5C208.133 175.539 201.633 174.539 195 173.5C192.938 171.267 190.771 169.267 188.5 167.5C188.157 162.794 187.491 158.127 186.5 153.5C186.585 151.667 187.252 150.334 188.5 149.5Z" fill="#864CAB"/>
<path fill-rule="evenodd" clip-rule="evenodd" d="M54.5 173.5C50.8333 173.5 47.1667 173.5 43.5 173.5C44.5039 178.505 46.3372 183.172 49 187.5C49.1706 196.01 49.6706 204.343 50.5 212.5C50.6309 213.376 50.2975 214.043 49.5 214.5C48.8332 208.681 48.1665 203.014 47.5 197.5C47.3689 188.914 44.7022 181.247 39.5 174.5C39.9175 173.778 40.5842 173.278 41.5 173C46.0204 172.186 50.3537 172.353 54.5 173.5Z" fill="#370651"/>
<path fill-rule="evenodd" clip-rule="evenodd" d="M145.5 123.5C152.998 124.086 160.665 124.253 168.5 124C169.91 125.372 171.577 126.205 173.5 126.5C174.251 127.573 175.251 127.74 176.5 127C178.891 124.363 180.891 121.53 182.5 118.5C182.281 117.325 182.614 116.325 183.5 115.5C184.814 116.313 185.981 117.313 187 118.5C187.498 121.482 187.665 124.482 187.5 127.5C192.133 127.16 196.133 128.494 199.5 131.5C198.833 131.5 198.167 131.5 197.5 131.5C190.875 130.843 184.208 130.677 177.5 131C174.121 129.893 170.954 128.393 168 126.5C166.056 127.439 164.389 128.773 163 130.5C162.197 133.244 161.197 135.911 160 138.5C158.117 137.347 157.284 135.681 157.5 133.5C157.5 131.167 157.5 128.833 157.5 126.5C153.958 126.187 150.625 126.521 147.5 127.5C145.588 129.657 143.921 131.991 142.5 134.5C142.349 137.718 141.516 138.051 140 135.5C139.667 131.167 139.333 126.833 139 122.5C136.815 121.072 134.815 119.405 133 117.5C131.143 120.937 129.809 124.604 129 128.5C124.592 123.943 123.425 118.61 125.5 112.5C126.799 110.847 126.466 109.347 124.5 108C120.623 105.418 116.623 105.085 112.5 107C111.177 107.816 110.511 108.983 110.5 110.5C109.411 114.078 109.245 117.745 110 121.5C112.167 128.681 116.334 134.515 122.5 139C140.475 148.602 159.141 150.102 178.5 143.5C179.833 144.833 181.167 146.167 182.5 147.5C183.167 147.5 183.833 147.5 184.5 147.5C183.749 154.715 185.082 161.382 188.5 167.5C189.183 171.02 191.183 173.52 194.5 175C201.112 176.21 207.778 176.71 214.5 176.5C217.518 176.704 220.518 177.037 223.5 177.5C229.377 178.725 235.044 180.725 240.5 183.5C241.167 181.833 241.833 180.167 242.5 178.5C242.336 181.187 242.503 183.854 243 186.5C244.129 188.141 245.629 189.141 247.5 189.5C246.081 190.451 244.415 190.784 242.5 190.5C242.263 191.791 242.596 192.791 243.5 193.5C245.474 195.428 246.974 197.761 248 200.5C251.644 209.099 254.977 217.765 258 226.5C260.758 231.36 264.424 235.36 269 238.5C271.06 237.41 272.393 235.743 273 233.5C274.259 221.561 273.092 209.894 269.5 198.5C270.167 198.5 270.833 198.5 271.5 198.5C272.21 202.025 273.21 205.358 274.5 208.5C274.263 209.791 274.596 210.791 275.5 211.5C275.5 211.833 275.5 212.167 275.5 212.5C275.666 219.508 275.5 226.508 275 233.5C270.61 239.665 272.11 243.498 279.5 245C285.711 247.349 292.044 249.182 298.5 250.5C299.93 251.537 301.597 252.204 303.5 252.5C305.509 254.065 307.843 255.065 310.5 255.5C314.075 257.287 317.741 259.121 321.5 261C324.378 262.716 326.712 264.883 328.5 267.5C328.845 271.115 328.178 274.448 326.5 277.5C322.874 279.37 319.208 281.037 315.5 282.5C308.673 283.331 302.006 284.331 295.5 285.5C279.097 286.193 263.097 284.193 247.5 279.5C244.836 276.834 241.503 275.168 237.5 274.5C236.713 272.896 235.38 272.229 233.5 272.5C233.5 271.5 233.5 270.5 233.5 269.5C247.816 270.568 262.149 270.568 276.5 269.5C281.844 269.184 287.178 268.684 292.5 268C293.728 267.221 294.728 266.221 295.5 265C293.825 262.315 291.492 260.315 288.5 259C283.727 258.332 279.06 257.499 274.5 256.5C273.737 255.732 272.737 255.232 271.5 255C260.992 254.175 250.658 254.341 240.5 255.5C230.738 255.555 221.071 256.221 211.5 257.5C211.167 257.5 210.833 257.5 210.5 257.5C213.729 249.475 215.729 241.142 216.5 232.5C217.808 228.981 217.808 225.315 216.5 221.5C214.517 221.185 213.184 220.185 212.5 218.5C215.795 220.009 218.795 219.509 221.5 217C224.153 213.529 226.153 209.696 227.5 205.5C224.641 204.401 221.974 204.901 219.5 207C216.254 208.742 213.921 211.242 212.5 214.5C212.519 212.94 212.852 211.44 213.5 210C213.252 208.251 212.252 207.418 210.5 207.5C210.5 207.167 210.5 206.833 210.5 206.5C210.665 202.818 210.499 199.152 210 195.5C209.692 194.692 209.192 194.025 208.5 193.5C206.118 195.215 204.118 197.215 202.5 199.5C202.167 199.5 201.833 199.5 201.5 199.5C203.153 195.673 205.819 193.173 209.5 192C210.211 193.255 211.044 194.421 212 195.5C217.238 190.993 218.738 185.493 216.5 179C209.376 178.952 202.376 178.119 195.5 176.5C195.088 182.567 193.754 188.401 191.5 194C192.315 195.643 193.315 197.143 194.5 198.5C193.833 198.5 193.5 198.833 193.5 199.5C191.704 198.207 190.037 196.707 188.5 195C187.552 194.517 186.552 194.351 185.5 194.5C185.5 197.5 185.5 200.5 185.5 203.5C184.833 203.5 184.5 203.833 184.5 204.5C183.778 204.082 183.278 203.416 183 202.5C179.387 205.302 175.553 207.636 171.5 209.5C168.023 210.323 164.356 210.823 160.5 211C159.944 211.383 159.611 211.883 159.5 212.5C150.622 215.856 142.789 220.856 136 227.5C135.536 226.906 135.369 226.239 135.5 225.5C139.166 222.003 142.999 218.669 147 215.5C147.483 211.468 146.65 207.801 144.5 204.5C144.403 193.501 141.236 183.501 135 174.5C131.926 167.12 130.426 159.454 130.5 151.5C130.662 149.473 130.495 147.473 130 145.5C122.822 142.153 116.655 137.487 111.5 131.5C109.268 126.626 107.935 121.459 107.5 116C108.161 104.169 113.828 100.836 124.5 106C130.855 111.357 136.855 117.023 142.5 123C143.448 123.483 144.448 123.649 145.5 123.5Z" fill="#161118"/>
<path fill-rule="evenodd" clip-rule="evenodd" d="M137.5 159.5C136.957 159.56 136.624 159.893 136.5 160.5C137.375 164.211 138.375 167.878 139.5 171.5C138.206 170.71 137.039 169.71 136 168.5C135.057 165.176 134.224 161.843 133.5 158.5C135.099 158.232 136.432 158.566 137.5 159.5Z" fill="#766A7E"/>
<path fill-rule="evenodd" clip-rule="evenodd" d="M182.5 147.5C179.937 164.893 169.771 173.893 152 174.5C147.437 174.926 143.27 173.926 139.5 171.5C138.375 167.878 137.375 164.211 136.5 160.5C136.624 159.893 136.957 159.56 137.5 159.5C155.298 165.224 170.298 161.224 182.5 147.5Z" fill="#B3A0BD"/>
<path fill-rule="evenodd" clip-rule="evenodd" d="M168.5 163.5C170.379 163.393 170.712 163.893 169.5 165C162.027 169.235 154.027 170.569 145.5 169C153.854 169.494 161.521 167.66 168.5 163.5Z" fill="#E0D3E4"/>
<path fill-rule="evenodd" clip-rule="evenodd" d="M176.5 145.5C177.552 145.351 178.552 145.517 179.5 146C173.819 153.678 166.152 158.012 156.5 159C148.513 159.603 140.846 158.27 133.5 155C132.325 152.162 132.491 149.329 134 146.5C145.924 151.235 158.09 151.735 170.5 148C172.852 147.76 174.852 146.927 176.5 145.5Z" fill="#776A7F"/>
<path fill-rule="evenodd" clip-rule="evenodd" d="M142.5 134.5C141.883 134.389 141.383 134.056 141 133.5C140.503 130.854 140.336 128.187 140.5 125.5C142.429 125.231 144.095 125.731 145.5 127C143.798 129.235 142.798 131.735 142.5 134.5Z" fill="#D0D1D1"/>
<path fill-rule="evenodd" clip-rule="evenodd" d="M160.5 125.5C161.873 125.343 163.207 125.51 164.5 126C162.451 128.596 160.785 131.429 159.5 134.5C158.064 131.232 158.397 128.232 160.5 125.5Z" fill="#CBCCCB"/>
<path fill-rule="evenodd" clip-rule="evenodd" d="M147.5 127.5C150.625 126.521 153.958 126.187 157.5 126.5C157.5 128.833 157.5 131.167 157.5 133.5C156.539 131.735 156.205 129.735 156.5 127.5C153.5 127.5 150.5 127.5 147.5 127.5Z" fill="#5C5A60"/>
<path fill-rule="evenodd" clip-rule="evenodd" d="M182.5 118.5C183.496 118.414 184.329 118.748 185 119.5C185.667 122.167 185.667 124.833 185 127.5C182.861 128.769 180.695 128.769 178.5 127.5C180.658 124.852 181.992 121.852 182.5 118.5Z" fill="#D7D8D7"/>
<path fill-rule="evenodd" clip-rule="evenodd" d="M173.5 126.5C171.577 126.205 169.91 125.372 168.5 124C160.665 124.253 152.998 124.086 145.5 123.5C151.675 123.378 157.842 123.045 164 122.5C166.5 122.833 169 123.167 171.5 123.5C172.612 124.265 173.279 125.265 173.5 126.5Z" fill="#A266CC"/>
<path fill-rule="evenodd" clip-rule="evenodd" d="M129.5 113.5C130.478 113.811 131.145 114.478 131.5 115.5C130.253 117.323 129.586 119.323 129.5 121.5C128.307 121.03 127.64 120.03 127.5 118.5C127.436 116.443 128.102 114.777 129.5 113.5Z" fill="#E9E9E7"/>
<path fill-rule="evenodd" clip-rule="evenodd" d="M129.5 113.5C128.102 114.777 127.436 116.443 127.5 118.5C127.64 120.03 128.307 121.03 129.5 121.5C128.91 122.766 128.41 124.099 128 125.5C126.566 121.594 126.233 117.594 127 113.5C127.977 112.226 128.811 112.226 129.5 113.5Z" fill="#A4A5A5"/>
<path fill-rule="evenodd" clip-rule="evenodd" d="M125.5 112.5C125.586 111.504 125.252 110.671 124.5 110C119.532 106.644 114.866 106.81 110.5 110.5C110.511 108.983 111.177 107.816 112.5 107C116.623 105.085 120.623 105.418 124.5 108C126.466 109.347 126.799 110.847 125.5 112.5Z" fill="#827B85"/>
<path fill-rule="evenodd" clip-rule="evenodd" d="M54.5 173.5C59.0982 173.273 63.4316 174.106 67.5 176C69.1802 176.347 70.1802 177.347 70.5 179C68.4085 184.252 67.0752 189.752 66.5 195.5C60.4685 200.531 55.1352 206.197 50.5 212.5C49.6706 204.343 49.1706 196.01 49 187.5C46.3372 183.172 44.5039 178.505 43.5 173.5C47.1667 173.5 50.8333 173.5 54.5 173.5Z" fill="#500677"/>
<path fill-rule="evenodd" clip-rule="evenodd" d="M262.5 174.5C265.691 174.762 268.358 176.095 270.5 178.5C268.257 179.474 265.924 179.808 263.5 179.5C263.371 177.784 263.038 176.117 262.5 174.5Z" fill="#ABA4AE"/>
<path fill-rule="evenodd" clip-rule="evenodd" d="M143.5 176.5C144.391 178.609 145.558 180.609 147 182.5C147.953 185.432 148.453 188.432 148.5 191.5C147.178 191.67 146.011 191.337 145 190.5C143.583 185.226 141.417 180.226 138.5 175.5C140.192 174.799 141.858 175.133 143.5 176.5Z" fill="#776A7E"/>
<path fill-rule="evenodd" clip-rule="evenodd" d="M247.5 189.5C245.629 189.141 244.129 188.141 243 186.5C242.503 183.854 242.336 181.187 242.5 178.5C243.549 170.952 245.715 170.619 249 177.5C251.408 182.025 250.908 186.025 247.5 189.5Z" fill="#BFB6C4"/>
<path fill-rule="evenodd" clip-rule="evenodd" d="M81.5 177.5C80.2899 182.084 79.2899 186.75 78.5 191.5C79.1393 194.475 79.6393 197.475 80 200.5C80.3333 196.833 80.6667 193.167 81 189.5C81.414 189.043 81.914 188.709 82.5 188.5C83.4959 194.463 83.8293 200.463 83.5 206.5C82.6739 201.684 82.1739 196.684 82 191.5C81.8333 194.333 81.6667 197.167 81.5 200C81.3259 204.442 81.9926 208.609 83.5 212.5C85.5283 216.068 87.195 219.902 88.5 224C88.3333 224.5 88.1667 225 88 225.5C87.0467 223.545 85.7134 221.878 84 220.5C83.6012 220.728 83.4346 221.062 83.5 221.5C77.4624 208.803 75.9624 195.469 79 181.5C79.6082 179.934 80.4415 178.6 81.5 177.5Z" fill="#B872E4"/>
<path fill-rule="evenodd" clip-rule="evenodd" d="M254.5 189.5C254.5 186.5 254.5 183.5 254.5 180.5C259.478 173.382 262.145 174.382 262.5 183.5C262.596 190.13 259.929 192.13 254.5 189.5Z" fill="#BCB4C1"/>
<path fill-rule="evenodd" clip-rule="evenodd" d="M201.5 199.5C198.941 199.802 196.607 199.468 194.5 198.5C193.315 197.143 192.315 195.643 191.5 194C193.754 188.401 195.088 182.567 195.5 176.5C202.376 178.119 209.376 178.952 216.5 179C218.738 185.493 217.238 190.993 212 195.5C211.044 194.421 210.211 193.255 209.5 192C205.819 193.173 203.153 195.673 201.5 199.5Z" fill="#B29EBD"/>
<path fill-rule="evenodd" clip-rule="evenodd" d="M254.5 180.5C254.5 183.5 254.5 186.5 254.5 189.5C253.835 187.302 253.168 184.969 252.5 182.5C251.729 184.862 250.895 187.196 250 189.5C247.575 190.643 245.408 191.976 243.5 193.5C242.596 192.791 242.263 191.791 242.5 190.5C244.415 190.784 246.081 190.451 247.5 189.5C250.908 186.025 251.408 182.025 249 177.5C245.715 170.619 243.549 170.952 242.5 178.5C241.833 180.167 241.167 181.833 240.5 183.5C240.117 178.48 241.617 174.147 245 170.5C247.756 173.018 249.756 176.018 251 179.5C252.011 180.337 253.178 180.67 254.5 180.5Z" fill="#21132B"/>
<path fill-rule="evenodd" clip-rule="evenodd" d="M231.5 182.5C231.56 181.957 231.893 181.624 232.5 181.5C235.507 182.492 237.173 184.159 237.5 186.5C235.754 184.748 233.754 183.415 231.5 182.5Z" fill="#7B767A"/>
<path fill-rule="evenodd" clip-rule="evenodd" d="M220.5 180.5C226.795 182.064 232.295 185.064 237 189.5C239.734 199.233 237.734 207.9 231 215.5C227.942 219.062 224.442 222.062 220.5 224.5C220.167 223.667 219.833 222.833 219.5 222C224.778 216.607 227.778 210.107 228.5 202.5C226.801 202.34 225.134 202.506 223.5 203C220.657 204.517 217.823 206.017 215 207.5C214.228 207.355 213.561 207.022 213 206.5C212.333 203.833 212.333 201.167 213 198.5C218.515 193.787 221.015 187.787 220.5 180.5Z" fill="#B19DBB"/>
<path fill-rule="evenodd" clip-rule="evenodd" d="M148.5 191.5C148.453 188.432 147.953 185.432 147 182.5C145.558 180.609 144.391 178.609 143.5 176.5C160.95 179.858 174.117 173.858 183 158.5C186.659 169.531 183.826 178.698 174.5 186C166.613 192.19 157.946 194.023 148.5 191.5Z" fill="#B5A1BF"/>
<path fill-rule="evenodd" clip-rule="evenodd" d="M254.5 189.5C254.559 191.722 255.725 192.722 258 192.5C260.24 191.524 262.407 190.691 264.5 190C266.556 192.614 268.223 195.447 269.5 198.5C273.092 209.894 274.259 221.561 273 233.5C272.393 235.743 271.06 237.41 269 238.5C264.424 235.36 260.758 231.36 258 226.5C254.977 217.765 251.644 209.099 248 200.5C246.974 197.761 245.474 195.428 243.5 193.5C245.408 191.976 247.575 190.643 250 189.5C250.895 187.196 251.729 184.862 252.5 182.5C253.168 184.969 253.835 187.302 254.5 189.5Z" fill="#6B3789"/>
<path fill-rule="evenodd" clip-rule="evenodd" d="M111.5 190.5C111.5 191.5 111.5 192.5 111.5 193.5C110.514 197.97 110.181 202.637 110.5 207.5C109.347 201.681 109.181 195.681 110 189.5C110.383 190.056 110.883 190.389 111.5 190.5Z" fill="#3E2252"/>
<path fill-rule="evenodd" clip-rule="evenodd" d="M193.5 199.5C194.447 201.734 195.114 204.068 195.5 206.5C194.002 212.249 191.169 212.916 187 208.5C186.392 206.846 185.892 205.179 185.5 203.5C185.5 200.5 185.5 197.5 185.5 194.5C186.552 194.351 187.552 194.517 188.5 195C190.037 196.707 191.704 198.207 193.5 199.5Z" fill="#BAB1BF"/>
<path fill-rule="evenodd" clip-rule="evenodd" d="M210.5 206.5C209.399 207.848 208.399 209.348 207.5 211C203.173 211.843 201.173 210.01 201.5 205.5C201.672 203.452 202.005 201.452 202.5 199.5C204.118 197.215 206.118 195.215 208.5 193.5C209.192 194.025 209.692 194.692 210 195.5C210.499 199.152 210.665 202.818 210.5 206.5Z" fill="#B7AEBB"/>
<path fill-rule="evenodd" clip-rule="evenodd" d="M154.5 211.5C153.624 211.631 152.957 211.298 152.5 210.5C150.118 205.777 149.118 200.777 149.5 195.5C153.371 195.815 157.038 195.482 160.5 194.5C173.063 191.609 182.063 184.276 187.5 172.5C192.188 176.022 193.688 180.689 192 186.5C190.92 188.996 189.586 191.33 188 193.5C186.817 192.269 185.651 192.269 184.5 193.5C183.894 195.709 183.227 197.876 182.5 200C173.965 205.681 164.632 209.514 154.5 211.5Z" fill="#B3A0BE"/>
<path fill-rule="evenodd" clip-rule="evenodd" d="M271.5 198.5C280.811 199.158 289.811 200.825 298.5 203.5C290.391 203.352 282.391 202.352 274.5 200.5C274.5 203.167 274.5 205.833 274.5 208.5C273.21 205.358 272.21 202.025 271.5 198.5Z" fill="#481D72"/>
<path fill-rule="evenodd" clip-rule="evenodd" d="M65.5 198.5C67.369 200.635 68.0356 203.302 67.5 206.5C62.3894 207.09 58.3894 209.59 55.5 214C54.6683 214.688 54.0016 214.521 53.5 213.5C56.7637 207.904 60.7637 202.904 65.5 198.5Z" fill="#450768"/>
<path fill-rule="evenodd" clip-rule="evenodd" d="M298.5 203.5C309.624 205.036 320.29 208.036 330.5 212.5C319.557 210.101 308.89 207.101 298.5 203.5Z" fill="#4B2076"/>
<path fill-rule="evenodd" clip-rule="evenodd" d="M80.5 100.5C80.3342 105.179 80.5008 109.845 81 114.5C83.5736 126.62 85.7402 138.787 87.5 151C87.3333 153.833 87.1667 156.667 87 159.5C85.1594 165.537 83.3261 171.537 81.5 177.5C80.4415 178.6 79.6082 179.934 79 181.5C75.9624 195.469 77.4624 208.803 83.5 221.5C87.0319 231.79 91.6986 241.456 97.5 250.5C97.1667 250.5 96.8333 250.5 96.5 250.5C93.1667 246.833 89.8333 243.167 86.5 239.5C81.6821 232.557 77.5154 225.224 74 217.5C70.3286 207.467 68.9952 197.133 70 186.5C74.4844 175.713 78.1511 164.713 81 153.5C81.8371 149.852 81.3371 146.519 79.5 143.5C79.5 142.5 79.5 141.5 79.5 140.5C79.5959 135.89 80.5959 135.556 82.5 139.5C82.8333 138.833 83.1667 138.167 83.5 137.5C82.8738 133.655 82.2071 129.822 81.5 126C81.1667 125.5 80.8333 125 80.5 124.5C79.5 132.5 78.5 132.5 77.5 124.5C77.7833 121.258 78.6166 120.924 80 123.5C80.6667 121.167 80.6667 118.833 80 116.5C79.5814 117.672 78.9147 118.672 78 119.5C76.4492 112.582 76.1158 105.582 77 98.5C77.763 95.9365 78.263 95.9365 78.5 98.5C77.4311 103.8 77.2644 109.134 78 114.5C78.0291 109.542 78.8624 104.876 80.5 100.5Z" fill="#7F49A1"/>
<path fill-rule="evenodd" clip-rule="evenodd" d="M83.5 206.5C83.5 208.5 83.5 210.5 83.5 212.5C81.9926 208.609 81.3259 204.442 81.5 200C81.6667 197.167 81.8333 194.333 82 191.5C82.1739 196.684 82.6739 201.684 83.5 206.5Z" fill="#E7B5F6"/>
<path fill-rule="evenodd" clip-rule="evenodd" d="M212.5 218.5C212.5 217.167 212.5 215.833 212.5 214.5C213.921 211.242 216.254 208.742 219.5 207C221.974 204.901 224.641 204.401 227.5 205.5C226.153 209.696 224.153 213.529 221.5 217C218.795 219.509 215.795 220.009 212.5 218.5Z" fill="#BDB4C3"/>
<path fill-rule="evenodd" clip-rule="evenodd" d="M160.5 194.5C157.038 195.482 153.371 195.815 149.5 195.5C149.118 200.777 150.118 205.777 152.5 210.5C152.957 211.298 153.624 211.631 154.5 211.5C153.365 213.088 152.031 213.421 150.5 212.5C147.394 206.428 146.061 200.094 146.5 193.5C151.1 194.443 155.767 194.777 160.5 194.5Z" fill="#76687D"/>
<path fill-rule="evenodd" clip-rule="evenodd" d="M111.5 193.5C111.914 206.958 113.414 220.291 116 233.5C118.962 242.924 123.129 251.757 128.5 260C130.808 261.867 133.475 262.867 136.5 263C151.244 263.993 165.911 263.493 180.5 261.5C181.497 261.53 182.164 261.03 182.5 260C176.76 248.732 175.094 236.899 177.5 224.5C177.748 221.42 178.414 218.42 179.5 215.5C179.253 214.287 178.586 213.62 177.5 213.5C171.634 211.29 165.634 210.956 159.5 212.5C159.611 211.883 159.944 211.383 160.5 211C164.356 210.823 168.023 210.323 171.5 209.5C174.596 210.123 177.596 211.123 180.5 212.5C183.167 210.5 184.5 207.833 184.5 204.5C184.5 203.833 184.833 203.5 185.5 203.5C185.892 205.179 186.392 206.846 187 208.5C191.169 212.916 194.002 212.249 195.5 206.5C195.114 204.068 194.447 201.734 193.5 199.5C193.5 198.833 193.833 198.5 194.5 198.5C196.607 199.468 198.941 199.802 201.5 199.5C201.833 199.5 202.167 199.5 202.5 199.5C202.005 201.452 201.672 203.452 201.5 205.5C201.173 210.01 203.173 211.843 207.5 211C208.399 209.348 209.399 207.848 210.5 206.5C210.5 206.833 210.5 207.167 210.5 207.5C209.382 212.254 206.382 213.754 201.5 212C200.544 208.606 200.211 205.106 200.5 201.5C199.167 201.5 197.833 201.5 196.5 201.5C196.5 203.833 196.5 206.167 196.5 208.5C196.178 212.976 193.844 214.476 189.5 213C186.463 208.58 183.963 209.08 182 214.5C176.254 230.813 177.588 246.479 186 261.5C190.484 266.787 195.984 267.954 202.5 265C204.984 262.351 207.65 259.851 210.5 257.5C210.833 257.5 211.167 257.5 211.5 257.5C211.167 258.167 210.833 258.833 210.5 259.5C205.77 266.698 199.104 269.865 190.5 269C189.627 267.955 188.627 267.122 187.5 266.5C186.428 264.429 184.761 263.095 182.5 262.5C178.248 263.75 173.914 264.584 169.5 265C159.839 265.5 150.172 265.666 140.5 265.5C138.5 265.5 136.5 265.5 134.5 265.5C134.5 266.833 134.5 268.167 134.5 269.5C132.901 269.768 131.568 269.434 130.5 268.5C131.5 268.5 132.5 268.5 133.5 268.5C133.762 267.022 133.429 265.689 132.5 264.5C127.463 261.762 123.796 257.762 121.5 252.5C120.359 254.421 120.192 256.421 121 258.5C123.001 261.331 125.167 263.997 127.5 266.5C125.983 266.489 124.816 265.823 124 264.5C123.517 265.448 123.351 266.448 123.5 267.5C120.868 262.011 116.535 258.678 110.5 257.5C110.917 256.876 111.584 256.543 112.5 256.5C114.762 257.467 117.095 258.134 119.5 258.5C119.5 255.5 119.5 252.5 119.5 249.5C113.734 236.184 110.734 222.184 110.5 207.5C110.181 202.637 110.514 197.97 111.5 193.5Z" fill="#1B1124"/>
<path fill-rule="evenodd" clip-rule="evenodd" d="M184.5 204.5C184.5 207.833 183.167 210.5 180.5 212.5C177.596 211.123 174.596 210.123 171.5 209.5C175.553 207.636 179.387 205.302 183 202.5C183.278 203.416 183.778 204.082 184.5 204.5Z" fill="#A493AE"/>
<path fill-rule="evenodd" clip-rule="evenodd" d="M210.5 207.5C212.252 207.418 213.252 208.251 213.5 210C212.852 211.44 212.519 212.94 212.5 214.5C212.5 215.833 212.5 217.167 212.5 218.5C213.184 220.185 214.517 221.185 216.5 221.5C217.808 225.315 217.808 228.981 216.5 232.5C216.82 229.102 216.487 225.768 215.5 222.5C211.102 221.101 209.102 218.101 209.5 213.5C206.482 213.665 203.482 213.498 200.5 213C199.867 209.541 199.2 206.041 198.5 202.5C197.831 204.631 197.165 206.631 196.5 208.5C196.5 206.167 196.5 203.833 196.5 201.5C197.833 201.5 199.167 201.5 200.5 201.5C200.211 205.106 200.544 208.606 201.5 212C206.382 213.754 209.382 212.254 210.5 207.5Z" fill="#5D3474"/>
<path fill-rule="evenodd" clip-rule="evenodd" d="M70.5 214.5C64.7075 215.59 59.0409 216.923 53.5 218.5C57.3143 214.026 61.981 210.693 67.5 208.5C69.9746 209.677 70.9746 211.677 70.5 214.5Z" fill="#581F8C"/>
<path fill-rule="evenodd" clip-rule="evenodd" d="M216.5 232.5C215.729 241.142 213.729 249.475 210.5 257.5C207.65 259.851 204.984 262.351 202.5 265C195.984 267.954 190.484 266.787 186 261.5C177.588 246.479 176.254 230.813 182 214.5C183.963 209.08 186.463 208.58 189.5 213C193.844 214.476 196.178 212.976 196.5 208.5C197.165 206.631 197.831 204.631 198.5 202.5C199.2 206.041 199.867 209.541 200.5 213C203.482 213.498 206.482 213.665 209.5 213.5C209.102 218.101 211.102 221.101 215.5 222.5C216.487 225.768 216.82 229.102 216.5 232.5Z" fill="#6D368B"/>
<path fill-rule="evenodd" clip-rule="evenodd" d="M326.5 277.5C327.458 277.047 328.292 276.381 329 275.5C329.801 272.633 329.634 269.966 328.5 267.5C326.712 264.883 324.378 262.716 321.5 261C317.741 259.121 314.075 257.287 310.5 255.5C308.824 253.166 306.491 252.166 303.5 252.5C301.597 252.204 299.93 251.537 298.5 250.5C295.976 249.26 293.309 248.093 290.5 247C290.957 246.586 291.291 246.086 291.5 245.5C290.585 244.672 289.919 243.672 289.5 242.5C293.771 231.85 291.771 222.683 283.5 215C280.978 213.659 278.311 212.826 275.5 212.5C275.5 212.167 275.5 211.833 275.5 211.5C276.334 210.252 277.667 209.585 279.5 209.5C296.083 212.647 312.416 216.48 328.5 221C338.398 224.411 348.065 228.411 357.5 233C367.501 242.343 369.001 252.843 362 264.5C351.199 273.211 339.033 278.211 325.5 279.5C325.863 278.817 326.196 278.15 326.5 277.5Z" fill="#882ED9"/>
<path fill-rule="evenodd" clip-rule="evenodd" d="M240.5 194.5C250.346 206.184 252.179 219.184 246 233.5C239.079 246.703 228.246 253.369 213.5 253.5C216.593 245.033 218.926 236.367 220.5 227.5C233.841 220.503 240.507 209.503 240.5 194.5Z" fill="#B29DBC"/>
<path fill-rule="evenodd" clip-rule="evenodd" d="M275.5 212.5C278.311 212.826 280.978 213.659 283.5 215C291.771 222.683 293.771 231.85 289.5 242.5C289.919 243.672 290.585 244.672 291.5 245.5C291.291 246.086 290.957 246.586 290.5 247C293.309 248.093 295.976 249.26 298.5 250.5C292.044 249.182 285.711 247.349 279.5 245C272.11 243.498 270.61 239.665 275 233.5C275.5 226.508 275.666 219.508 275.5 212.5Z" fill="#5C1F93"/>
<path fill-rule="evenodd" clip-rule="evenodd" d="M41.5 213.5C42.209 212.596 43.209 212.263 44.5 212.5C45.1471 213.274 45.4805 214.274 45.5 215.5C44.658 219.868 43.658 224.201 42.5 228.5C42.5427 229.416 42.8761 230.083 43.5 230.5C43.0291 231.901 42.3624 233.234 41.5 234.5C41.1667 233.833 40.8333 233.167 40.5 232.5C41.2974 229.18 41.9641 225.846 42.5 222.5C42.9275 219.436 43.5942 216.436 44.5 213.5C43.5 213.5 42.5 213.5 41.5 213.5Z" fill="#4C1E78"/>
<path fill-rule="evenodd" clip-rule="evenodd" d="M144.5 204.5C146.65 207.801 147.483 211.468 147 215.5C142.999 218.669 139.166 222.003 135.5 225.5C137.371 220.79 140.537 217.124 145 214.5C145.388 211.151 145.221 207.817 144.5 204.5Z" fill="#7B4C9E"/>
<path fill-rule="evenodd" clip-rule="evenodd" d="M111.5 190.5C110.883 190.389 110.383 190.056 110 189.5C109.181 195.681 109.347 201.681 110.5 207.5C110.734 222.184 113.734 236.184 119.5 249.5C116.994 248.185 115.161 246.185 114 243.5C107.522 225.064 106.188 206.398 110 187.5C111.039 188.244 111.539 189.244 111.5 190.5Z" fill="#7C489C"/>
<path fill-rule="evenodd" clip-rule="evenodd" d="M3.49999 243.5C3.39211 248.87 3.72545 254.203 4.49999 259.5C3.77841 259.082 3.27841 258.416 2.99999 257.5C2.18491 252.648 2.35158 247.981 3.49999 243.5Z" fill="#3E1A62"/>
<path fill-rule="evenodd" clip-rule="evenodd" d="M90.5 300.5C99.0667 301.04 107.4 302.373 115.5 304.5C106.863 304.268 98.5297 302.935 90.5 300.5Z" fill="#3B195F"/>
<path fill-rule="evenodd" clip-rule="evenodd" d="M298.5 203.5C308.89 207.101 319.557 210.101 330.5 212.5C348.264 216.467 362.764 225.467 374 239.5C377.71 245.512 378.376 251.845 376 258.5C372.009 266.831 366.176 273.664 358.5 279C350.234 282.925 341.9 286.758 333.5 290.5C317.958 294.802 302.291 298.635 286.5 302C268.906 304.633 251.239 306.466 233.5 307.5C214.506 308.111 195.506 308.444 176.5 308.5C156.687 306.594 136.687 305.261 116.5 304.5C116.167 304.5 115.833 304.5 115.5 304.5C107.4 302.373 99.0667 301.04 90.5 300.5C63.94 297.202 39.2733 288.702 16.5 275C11.137 270.814 7.13699 265.647 4.50001 259.5C3.72547 254.203 3.39213 248.87 3.50001 243.5C6.0126 236.464 10.3459 230.63 16.5 226C24.2575 220.788 32.5908 216.621 41.5 213.5C42.5 213.5 43.5 213.5 44.5 213.5C43.5942 216.436 42.9275 219.436 42.5 222.5C29.2962 225.704 19.6295 233.37 13.5 245.5C12.2985 249.508 12.2985 253.508 13.5 257.5C18.0226 264.519 24.0226 270.019 31.5 274C39.698 277.476 48.0314 280.81 56.5 284C65.8071 285.658 74.8071 288.325 83.5 292C154.015 302.81 224.348 301.81 294.5 289C279.952 288.817 265.618 286.817 251.5 283C249.907 282.051 248.574 280.885 247.5 279.5C263.097 284.193 279.097 286.193 295.5 285.5C302.5 285.787 309.166 284.787 315.5 282.5C319.208 281.037 322.874 279.37 326.5 277.5C326.196 278.15 325.863 278.817 325.5 279.5C339.033 278.211 351.199 273.211 362 264.5C369.001 252.843 367.501 242.343 357.5 233C348.065 228.411 338.398 224.411 328.5 221C312.416 216.48 296.083 212.647 279.5 209.5C277.667 209.585 276.334 210.252 275.5 211.5C274.596 210.791 274.263 209.791 274.5 208.5C274.5 205.833 274.5 203.167 274.5 200.5C282.391 202.352 290.391 203.352 298.5 203.5Z" fill="#5C1F93"/>
<path fill-rule="evenodd" clip-rule="evenodd" d="M315.5 282.5C309.166 284.787 302.5 285.787 295.5 285.5C302.006 284.331 308.673 283.331 315.5 282.5Z" fill="#401E65"/>
<path fill-rule="evenodd" clip-rule="evenodd" d="M283.5 280.5C284.627 281.122 285.627 281.955 286.5 283C280.984 283.817 275.65 283.651 270.5 282.5C275.049 282.376 279.382 281.709 283.5 280.5Z" fill="#6D6276"/>
<path fill-rule="evenodd" clip-rule="evenodd" d="M310.5 278.5C311.922 278.709 313.255 279.209 314.5 280C306.023 282.535 297.356 283.535 288.5 283C287.944 282.617 287.611 282.117 287.5 281.5C294.515 281.271 301.515 280.771 308.5 280C309.416 279.722 310.082 279.222 310.5 278.5Z" fill="#796B81"/>
<path fill-rule="evenodd" clip-rule="evenodd" d="M328.5 267.5C329.634 269.966 329.801 272.633 329 275.5C328.292 276.381 327.458 277.047 326.5 277.5C328.178 274.448 328.845 271.115 328.5 267.5Z" fill="#431A6D"/>
<path fill-rule="evenodd" clip-rule="evenodd" d="M241.5 272.5C249.833 272.5 258.167 272.5 266.5 272.5C266.5 275.5 266.5 278.5 266.5 281.5C258.044 280.793 250.044 278.46 242.5 274.5C241.702 274.043 241.369 273.376 241.5 272.5Z" fill="#6D6172"/>
<path fill-rule="evenodd" clip-rule="evenodd" d="M245.5 274.5C251.979 273.509 258.646 273.176 265.5 273.5C265.5 275.5 265.5 277.5 265.5 279.5C262.813 279.664 260.146 279.497 257.5 279C253.589 277.209 249.589 275.709 245.5 274.5Z" fill="#B8A4C2"/>
<path fill-rule="evenodd" clip-rule="evenodd" d="M237.5 274.5C241.503 275.168 244.836 276.834 247.5 279.5C243.58 278.873 240.247 277.207 237.5 274.5Z" fill="#512084"/>
<path fill-rule="evenodd" clip-rule="evenodd" d="M310.5 278.5C310.082 279.222 309.416 279.722 308.5 280C301.515 280.771 294.515 281.271 287.5 281.5C285 278.34 283.667 274.673 283.5 270.5C287.876 270.363 292.209 270.196 296.5 270C300.395 274.114 305.062 276.947 310.5 278.5Z" fill="#B09DBA"/>
<path fill-rule="evenodd" clip-rule="evenodd" d="M283.5 280.5C279.382 281.709 275.049 282.376 270.5 282.5C269.778 282.082 269.278 281.416 269 280.5C268.503 277.854 268.336 275.187 268.5 272.5C272.81 271.92 277.143 271.586 281.5 271.5C282.167 274.5 282.833 277.5 283.5 280.5Z" fill="#B29EBB"/>
<path fill-rule="evenodd" clip-rule="evenodd" d="M314.5 261.5C322.895 262.05 326.729 266.384 326 274.5C323.293 278.035 319.793 279.202 315.5 278C309.192 276.096 303.359 273.262 298 269.5C297.51 268.207 297.343 266.873 297.5 265.5C300.518 265.665 303.518 265.498 306.5 265C309.666 264.678 312.333 263.511 314.5 261.5Z" fill="#B29FBB"/>
<path fill-rule="evenodd" clip-rule="evenodd" d="M262.5 255.5C266.519 255.646 270.519 255.979 274.5 256.5C279.06 257.499 283.727 258.332 288.5 259C291.492 260.315 293.825 262.315 295.5 265C294.728 266.221 293.728 267.221 292.5 268C287.178 268.684 281.844 269.184 276.5 269.5C281.698 268.092 287.031 266.759 292.5 265.5C291.717 263.712 290.384 262.712 288.5 262.5C288.38 261.414 287.713 260.747 286.5 260.5C283.728 259.974 281.062 259.141 278.5 258C272.919 257.85 267.586 257.017 262.5 255.5Z" fill="#5A248F"/>
<path fill-rule="evenodd" clip-rule="evenodd" d="M130.5 268.5C130.027 267.094 129.027 266.427 127.5 266.5C125.167 263.997 123.001 261.331 121 258.5C120.192 256.421 120.359 254.421 121.5 252.5C123.796 257.762 127.463 261.762 132.5 264.5C133.429 265.689 133.762 267.022 133.5 268.5C132.5 268.5 131.5 268.5 130.5 268.5Z" fill="#A8A0AC"/>
<path fill-rule="evenodd" clip-rule="evenodd" d="M292.5 252.5C299.554 253.692 306.221 256.025 312.5 259.5C304.63 264.101 297.296 263.268 290.5 257C291.582 255.67 292.249 254.17 292.5 252.5Z" fill="#B3A0BE"/>
<path fill-rule="evenodd" clip-rule="evenodd" d="M244.5 255.5C250.5 255.5 256.5 255.5 262.5 255.5C267.586 257.017 272.919 257.85 278.5 258C281.062 259.141 283.728 259.974 286.5 260.5C287.713 260.747 288.38 261.414 288.5 262.5C271.453 258.209 254.12 256.542 236.5 257.5C239.167 256.833 241.833 256.167 244.5 255.5Z" fill="#621FA0"/>
<path fill-rule="evenodd" clip-rule="evenodd" d="M240.5 255.5C241.833 255.5 243.167 255.5 244.5 255.5C241.833 256.167 239.167 256.833 236.5 257.5C227.733 257.192 219.066 257.858 210.5 259.5C210.833 258.833 211.167 258.167 211.5 257.5C221.071 256.221 230.738 255.555 240.5 255.5Z" fill="#4A1D75"/>
<path fill-rule="evenodd" clip-rule="evenodd" d="M96.5 250.5C96.8333 250.5 97.1667 250.5 97.5 250.5C99.8922 255.225 103.559 258.558 108.5 260.5C109.89 261.899 110.89 263.566 111.5 265.5C109.711 264.123 107.711 263.123 105.5 262.5C102.694 259.272 99.6937 256.272 96.5 253.5C96.5 252.5 96.5 251.5 96.5 250.5Z" fill="#1B0C29"/>
<path fill-rule="evenodd" clip-rule="evenodd" d="M240.5 255.5C250.658 254.341 260.992 254.175 271.5 255C272.737 255.232 273.737 255.732 274.5 256.5C270.519 255.979 266.519 255.646 262.5 255.5C256.5 255.5 250.5 255.5 244.5 255.5C243.167 255.5 241.833 255.5 240.5 255.5Z" fill="#260F3B"/>
<path fill-rule="evenodd" clip-rule="evenodd" d="M303.5 252.5C306.491 252.166 308.824 253.166 310.5 255.5C307.843 255.065 305.509 254.065 303.5 252.5Z" fill="#562686"/>
<path fill-rule="evenodd" clip-rule="evenodd" d="M276.5 246.5C281.114 248.038 285.781 249.372 290.5 250.5C290.703 252.39 290.037 253.89 288.5 255C283.025 255.456 277.692 254.789 272.5 253C274.734 251.362 276.067 249.195 276.5 246.5Z" fill="#AF9CBA"/>
<path fill-rule="evenodd" clip-rule="evenodd" d="M86.5 239.5C89.8333 243.167 93.1667 246.833 96.5 250.5C96.5 251.5 96.5 252.5 96.5 253.5C92.4874 249.485 88.8207 245.152 85.5 240.5C86.1667 240.5 86.5 240.167 86.5 239.5Z" fill="#2A0C44"/>
<path fill-rule="evenodd" clip-rule="evenodd" d="M262.5 237.5C266.111 239.644 269.778 241.81 273.5 244C274.517 245.049 274.684 246.216 274 247.5C272.5 249 271 250.5 269.5 252C264.167 252.667 258.833 252.667 253.5 252C258.384 248.41 261.384 243.577 262.5 237.5Z" fill="#B19EBA"/>
<path fill-rule="evenodd" clip-rule="evenodd" d="M238.5 221.5C239.043 221.56 239.376 221.893 239.5 222.5C235.772 228.734 231.105 234.234 225.5 239C224.241 239.982 222.908 240.315 221.5 240C228.422 234.915 234.088 228.748 238.5 221.5Z" fill="#E3D4E8"/>
<path fill-rule="evenodd" clip-rule="evenodd" d="M177.5 224.5C175.094 236.899 176.76 248.732 182.5 260C182.164 261.03 181.497 261.53 180.5 261.5C178.495 256.642 176.829 251.642 175.5 246.5C174.366 240.162 174.366 233.828 175.5 227.5C175.64 225.97 176.307 224.97 177.5 224.5Z" fill="#70448A"/>
<path fill-rule="evenodd" clip-rule="evenodd" d="M251.5 218.5C254.069 224.131 257.069 229.631 260.5 235C259.591 241.897 256.258 247.23 250.5 251C243.895 252.439 237.228 253.106 230.5 253C244.015 245.47 251.015 233.97 251.5 218.5Z" fill="#B29EBC"/>
<path fill-rule="evenodd" clip-rule="evenodd" d="M70.5 214.5C70.5 215.833 70.5 217.167 70.5 218.5C60.8218 219.013 53.9884 223.68 50 232.5C49.1628 236.295 49.4961 239.961 51 243.5C57.7505 250.798 65.9171 255.965 75.5 259C80.607 259.488 85.607 260.488 90.5 262C95.4889 262.499 100.489 262.666 105.5 262.5C107.711 263.123 109.711 264.123 111.5 265.5C114.183 271.415 118.85 274.415 125.5 274.5C125.829 271.772 125.163 269.438 123.5 267.5C123.351 266.448 123.517 265.448 124 264.5C124.816 265.823 125.983 266.489 127.5 266.5C127.973 267.906 128.973 268.573 130.5 268.5C131.568 269.434 132.901 269.768 134.5 269.5C134.5 268.167 134.5 266.833 134.5 265.5C136.5 265.5 138.5 265.5 140.5 265.5C153.893 266.967 167.393 266.634 181 264.5C183.442 264.482 185.608 265.149 187.5 266.5C188.627 267.122 189.627 267.955 190.5 269C199.104 269.865 205.77 266.698 210.5 259.5C219.066 257.858 227.733 257.192 236.5 257.5C254.12 256.542 271.453 258.209 288.5 262.5C290.384 262.712 291.717 263.712 292.5 265.5C287.031 266.759 281.698 268.092 276.5 269.5C262.149 270.568 247.816 270.568 233.5 269.5C233.5 270.5 233.5 271.5 233.5 272.5C235.38 272.229 236.713 272.896 237.5 274.5C240.247 277.207 243.58 278.873 247.5 279.5C248.574 280.885 249.907 282.051 251.5 283C265.618 286.817 279.952 288.817 294.5 289C224.348 301.81 154.015 302.81 83.5 292C74.8071 288.325 65.8071 285.658 56.5 284C48.0314 280.81 39.698 277.476 31.5 274C24.0226 270.019 18.0226 264.519 13.5 257.5C12.2985 253.508 12.2985 249.508 13.5 245.5C19.6295 233.37 29.2962 225.704 42.5 222.5C41.9641 225.846 41.2974 229.18 40.5 232.5C40.8333 233.167 41.1667 233.833 41.5 234.5C42.3624 233.234 43.0291 231.901 43.5 230.5C45.8907 225.721 49.224 221.721 53.5 218.5C59.0409 216.923 64.7075 215.59 70.5 214.5Z" fill="#882ED9"/>
<path fill-rule="evenodd" clip-rule="evenodd" d="M127.5 266.5C129.027 266.427 130.027 267.094 130.5 268.5C128.973 268.573 127.973 267.906 127.5 266.5Z" fill="#341742"/>
<path fill-rule="evenodd" clip-rule="evenodd" d="M111.5 265.5C113.902 267.909 116.569 269.909 119.5 271.5C120.708 272.234 122.041 272.567 123.5 272.5C123.5 270.833 123.5 269.167 123.5 267.5C125.163 269.438 125.829 271.772 125.5 274.5C118.85 274.415 114.183 271.415 111.5 265.5Z" fill="#321C43"/>
<path fill-rule="evenodd" clip-rule="evenodd" d="M110.5 257.5C110.755 260.016 111.589 262.35 113 264.5C115.372 266.703 117.539 269.037 119.5 271.5C116.569 269.909 113.902 267.909 111.5 265.5C110.89 263.566 109.89 261.899 108.5 260.5C108.427 258.973 109.094 257.973 110.5 257.5Z" fill="#78707F"/>
<path fill-rule="evenodd" clip-rule="evenodd" d="M187.5 266.5C185.608 265.149 183.442 264.482 181 264.5C167.393 266.634 153.893 266.967 140.5 265.5C150.172 265.666 159.839 265.5 169.5 265C173.914 264.584 178.248 263.75 182.5 262.5C184.761 263.095 186.428 264.429 187.5 266.5Z" fill="#5E2695"/>
<path fill-rule="evenodd" clip-rule="evenodd" d="M110.5 257.5C116.535 258.678 120.868 262.011 123.5 267.5C123.5 269.167 123.5 270.833 123.5 272.5C122.041 272.567 120.708 272.234 119.5 271.5C117.539 269.037 115.372 266.703 113 264.5C111.589 262.35 110.755 260.016 110.5 257.5Z" fill="#C2B8C6"/>
<path fill-rule="evenodd" clip-rule="evenodd" d="M138.5 259.5C144.319 258.347 150.319 258.181 156.5 259C154.2 260.109 151.7 260.609 149 260.5C145.477 260.293 141.977 259.96 138.5 259.5Z" fill="#DCAEED"/>
<path fill-rule="evenodd" clip-rule="evenodd" d="M183.5 220.5C183.5 227.963 183.666 235.63 184 243.5C185.166 247.145 185.833 250.812 186 254.5C181.691 243.381 180.858 232.048 183.5 220.5Z" fill="#BF9DCD"/>
<path fill-rule="evenodd" clip-rule="evenodd" d="M70.5 214.5C74.4618 223.756 79.4618 232.423 85.5 240.5C88.8207 245.152 92.4874 249.485 96.5 253.5C99.6937 256.272 102.694 259.272 105.5 262.5C100.489 262.666 95.4889 262.499 90.5 262C85.607 260.488 80.607 259.488 75.5 259C65.9171 255.965 57.7505 250.798 51 243.5C49.4961 239.961 49.1628 236.295 50 232.5C53.9884 223.68 60.8218 219.013 70.5 218.5C70.5 217.167 70.5 215.833 70.5 214.5Z" fill="#5C1F94"/>
<path fill-rule="evenodd" clip-rule="evenodd" d="M177.5 213.5C178.586 213.62 179.253 214.287 179.5 215.5C178.414 218.42 177.748 221.42 177.5 224.5C176.307 224.97 175.64 225.97 175.5 227.5C174.366 233.828 174.366 240.162 175.5 246.5C174.732 245.737 174.232 244.737 174 243.5C172.568 233.122 173.735 223.122 177.5 213.5Z" fill="#864BAC"/>
<path fill-rule="evenodd" clip-rule="evenodd" d="M116.5 304.5C136.687 305.261 156.687 306.594 176.5 308.5C174.167 308.5 171.833 308.5 169.5 308.5C151.576 308.644 133.91 307.311 116.5 304.5Z" fill="#4A1E74"/>
<path fill-rule="evenodd" clip-rule="evenodd" d="M233.5 307.5C220.699 308.981 207.699 309.648 194.5 309.5C185.993 309.5 177.66 309.166 169.5 308.5C171.833 308.5 174.167 308.5 176.5 308.5C195.506 308.444 214.506 308.111 233.5 307.5Z" fill="#2F124A"/>
</svg>
