<svg width="40" height="41" viewBox="0 0 40 41" fill="none" xmlns="http://www.w3.org/2000/svg">
<path d="M22.3521 12.0664H17.6477L15.7664 7.39499L22.3521 12.0664Z" fill="#F78419" stroke="#F78419"/>
<path d="M15.7664 7.39499H24.2334L22.3521 12.0664L15.7664 7.39499Z" fill="#F78419" stroke="#F78419"/>
<path d="M17.6479 12.0664L5.70459 3.07812L15.7666 7.39499L17.6479 12.0664Z" fill="#E47719" stroke="#E47719"/>
<path d="M34.2956 3.07812L22.3523 12.0664L24.2337 7.39499L34.2956 3.07812Z" fill="#E17719" stroke="#E17719"/>
<path d="M10.6008 15.7297L5.23295 14.398L4.93042 13.1347L10.6008 15.7297Z" fill="#773900" stroke="#773900"/>
<path d="M29.3992 15.7297L35.0695 13.1347L34.767 14.398L29.3992 15.7297Z" fill="#773900" stroke="#773900"/>
<path d="M6.20654 18.0922L10.6009 15.7296L12.9162 16.2041L6.20654 18.0922Z" fill="#773900" stroke="#773900"/>
<path d="M33.7936 18.0922L27.084 16.2041L29.3993 15.7296L33.7936 18.0922Z" fill="#773900" stroke="#773900"/>
<path d="M5.43359 15.9149L10.6007 15.7296L6.20639 18.0922L5.43359 15.9149Z" fill="#773900" stroke="#773900"/>
<path d="M5.43361 15.9149L5.23291 14.398L10.6007 15.7297L5.43361 15.9149Z" fill="#773900" stroke="#773900"/>
<path d="M34.5663 15.9149L33.7935 18.0922L29.3992 15.7296L34.5663 15.9149Z" fill="#773900" stroke="#773900"/>
<path d="M34.5663 15.9149L29.3992 15.7297L34.767 14.398L34.5663 15.9149Z" fill="#773900" stroke="#773900"/>
<path d="M10.8056 8.98846L10.6008 15.7297L4.93042 13.1347L10.8056 8.98846Z" fill="#773900" stroke="#773900"/>
<path d="M12.9161 16.2042L10.6008 15.7297L10.8057 8.98846L12.9161 16.2042Z" fill="#773900" stroke="#773900"/>
<path d="M35.0695 13.1347L29.3992 15.7297L29.1943 8.98846L35.0695 13.1347Z" fill="#773900" stroke="#773900"/>
<path d="M29.1944 8.98846L29.3993 15.7297L27.084 16.2042L29.1944 8.98846Z" fill="#773900" stroke="#773900"/>
<path d="M13.1419 30.071L5.69085 32.6125L3.7854 25.2244L13.1419 30.071Z" fill="#E47719" stroke="#E47719"/>
<path d="M36.2146 25.2244L34.3092 32.6125L26.8582 30.071L36.2146 25.2244Z" fill="#E47719" stroke="#E47719"/>
<path d="M10.8057 8.98846L17.6478 12.0664L12.9161 16.2042L10.8057 8.98846Z" fill="#773900" stroke="#773900"/>
<path d="M27.084 16.2042L22.3523 12.0664L29.1945 8.98846L27.084 16.2042Z" fill="#773900" stroke="#773900"/>
<path d="M4.23706 13.6042L4.93043 13.1347L5.23297 14.398L4.23706 13.6042Z" fill="#773900" stroke="#773900"/>
<path d="M35.763 13.6042L34.7671 14.398L35.0696 13.1347L35.763 13.6042Z" fill="#773900" stroke="#773900"/>
<path d="M10.8649 18.7635L3.7854 25.2244L6.20645 18.0922L10.8649 18.7635Z" fill="#F78419" stroke="#F78419"/>
<path d="M29.135 18.7635L33.7935 18.0922L36.2145 25.2244L29.135 18.7635Z" fill="#F78419" stroke="#F78419"/>
<path d="M5.43358 15.9149L4.44751 14.9663L5.23288 14.398L5.43358 15.9149Z" fill="#773900" stroke="#773900"/>
<path d="M34.5664 15.9149L34.7671 14.398L35.5525 14.9663L34.5664 15.9149Z" fill="#773900" stroke="#773900"/>
<path d="M3.7854 25.2244L9.79162 24.6129L13.1419 30.071L3.7854 25.2244Z" fill="#E47719" stroke="#E47719"/>
<path d="M26.8582 30.071L30.2084 24.6129L36.2146 25.2244L26.8582 30.071Z" fill="#E47719" stroke="#E47719"/>
<path d="M9.79162 24.6129L3.7854 25.2244L10.8649 18.7635L9.79162 24.6129Z" fill="#F78419" stroke="#F78419"/>
<path d="M29.135 18.7635L36.2145 25.2244L30.2083 24.6129L29.135 18.7635Z" fill="#F78419" stroke="#F78419"/>
<path d="M6.20645 18.0922L4.79126 16.3473L5.43366 15.9149L6.20645 18.0922Z" fill="#773900" stroke="#773900"/>
<path d="M33.7935 18.0922L34.5663 15.9149L35.2087 16.3473L33.7935 18.0922Z" fill="#773900" stroke="#773900"/>
<path d="M4.93034 13.1347L4.00781 7.90884L10.8055 8.98846L4.93034 13.1347Z" fill="#773900" stroke="#773900"/>
<path d="M29.1943 8.98846L35.9921 7.90884L35.0695 13.1347L29.1943 8.98846Z" fill="#773900" stroke="#773900"/>
<path d="M6.20654 18.0922L12.9162 16.2041L10.865 18.7635L6.20654 18.0922Z" fill="#F78419" stroke="#F78419"/>
<path d="M33.7936 18.0922L29.1351 18.7635L27.084 16.2041L33.7936 18.0922Z" fill="#F78419" stroke="#F78419"/>
<path d="M12.916 16.2041L17.6477 12.0663L18.048 18.8863L12.916 16.2041Z" fill="#E47719" stroke="#E47719"/>
<path d="M18.0481 18.8863L10.865 18.7635L12.9161 16.2041L18.0481 18.8863Z" fill="#E47719" stroke="#E47719"/>
<path d="M27.0839 16.2041L29.135 18.7635L21.9519 18.8863L27.0839 16.2041Z" fill="#E47719" stroke="#E47719"/>
<path d="M21.9519 18.8863L22.3521 12.0663L27.0839 16.2041L21.9519 18.8863Z" fill="#E47719" stroke="#E47719"/>
<path d="M5.70459 3.07812L17.6479 12.0664L10.8057 8.98847L5.70459 3.07812Z" fill="#773900" stroke="#773900"/>
<path d="M34.2955 3.07812L35.9921 7.90885L29.1943 8.98847L34.2955 3.07812Z" fill="#773900" stroke="#773900"/>
<path d="M10.8055 8.98847L4.00781 7.90885L5.7044 3.07812L10.8055 8.98847Z" fill="#773900" stroke="#773900"/>
<path d="M29.1945 8.98847L22.3523 12.0664L34.2956 3.07812L29.1945 8.98847Z" fill="#773900" stroke="#773900"/>
<path d="M17.6477 12.0663H22.3521L21.9518 18.8863L17.6477 12.0663Z" fill="#F78419" stroke="#F78419"/>
<path d="M21.9518 18.8863H18.0479L17.6477 12.0663L21.9518 18.8863Z" fill="#F78419" stroke="#F78419"/>
<path d="M13.142 30.071L9.79175 24.6129L13.8143 24.4942L13.142 30.071Z" fill="#CD6200" stroke="#CD6200"/>
<path d="M26.8581 30.071L26.1858 24.4942L30.2083 24.6129L26.8581 30.071Z" fill="#CD6200" stroke="#CD6200"/>
<path d="M13.7381 21.5898L10.865 18.7635L18.0481 18.8863L13.7381 21.5898Z" fill="#CD6200" stroke="#CD6200"/>
<path d="M21.9519 18.8863L29.135 18.7635L26.2619 21.5898L21.9519 18.8863Z" fill="#CD6200" stroke="#CD6200"/>
<path d="M10.865 18.7635L13.7381 21.5898L13.8142 24.4942L10.865 18.7635Z" fill="#E47424" stroke="#E47424"/>
<path d="M29.135 18.7635L26.1858 24.4942L26.2619 21.5898L29.135 18.7635Z" fill="#E47424" stroke="#E47424"/>
<path d="M10.8651 18.7635L13.8143 24.4942L9.79175 24.6129L10.8651 18.7635Z" fill="#F78419" stroke="#F78419"/>
<path d="M30.2083 24.6129L26.1858 24.4942L29.135 18.7635L30.2083 24.6129Z" fill="#F78419" stroke="#F78419"/>
<path d="M14.5659 30.9912L13.1418 30.071L17.2505 30.8595L14.5659 30.9912Z" fill="#C0AC9D" stroke="#C0AC9D"/>
<path d="M22.7495 30.8595L26.8581 30.071L25.4341 30.9912L22.7495 30.8595Z" fill="#C0AC9D" stroke="#C0AC9D"/>
<path d="M17.2224 29.3763L17.2505 30.8596L13.1418 30.071L17.2224 29.3763Z" fill="#D6C2B2" stroke="#D6C2B2"/>
<path d="M22.7776 29.3763L26.8581 30.071L22.7495 30.8596L22.7776 29.3763Z" fill="#D6C2B2" stroke="#D6C2B2"/>
<path d="M13.1418 30.071L17.5784 26.4138L17.2224 29.3763L13.1418 30.071Z" fill="#D6C2B2" stroke="#D6C2B2"/>
<path d="M26.8582 30.071L22.7777 29.3763L22.4216 26.4138L26.8582 30.071Z" fill="#D6C2B2" stroke="#D6C2B2"/>
<path d="M17.5784 26.4138L13.1418 30.071L13.8141 24.4942L17.5784 26.4138Z" fill="#E47719" stroke="#E47719"/>
<path d="M22.4216 26.4138L26.1859 24.4942L26.8582 30.071L22.4216 26.4138Z" fill="#E47719" stroke="#E47719"/>
<path d="M18.048 18.8863L16.3117 20.3967L13.738 21.5898L18.048 18.8863Z" fill="#CD6200" stroke="#CD6200"/>
<path d="M26.2619 21.5898L23.6883 20.3967L21.9519 18.8863L26.2619 21.5898Z" fill="#CD6200" stroke="#CD6200"/>
<path d="M17.3698 22.528L13.738 21.5898L16.3117 20.3967L17.3698 22.528Z" fill="#243343" stroke="#243343"/>
<path d="M22.6301 22.528L23.6883 20.3967L26.2619 21.5898L22.6301 22.528Z" fill="#243343" stroke="#243343"/>
<path d="M13.8142 24.4942L13.738 21.5898L17.3698 22.528L13.8142 24.4942Z" fill="#F78419" stroke="#F78419"/>
<path d="M26.1858 24.4942L22.6301 22.528L26.2619 21.5898L26.1858 24.4942Z" fill="#F78419" stroke="#F78419"/>
<path d="M16.3118 20.3967L18.0481 18.8863L17.3699 22.528L16.3118 20.3967Z" fill="#CD6200" stroke="#CD6200"/>
<path d="M23.6883 20.3967L22.6302 22.528L21.9519 18.8863L23.6883 20.3967Z" fill="#CD6200" stroke="#CD6200"/>
<path d="M17.3699 22.528L18.0481 18.8863L18.205 21.0395L17.3699 22.528Z" fill="#E47424" stroke="#E47424"/>
<path d="M18.205 21.0395L18.0481 18.8863H21.952L18.205 21.0395Z" fill="#F78419" stroke="#F78419"/>
<path d="M21.9518 18.8863L21.7949 21.0395H18.2048L21.9518 18.8863Z" fill="#F78419" stroke="#F78419"/>
<path d="M22.6303 22.528L21.7952 21.0395L21.9521 18.8863L22.6303 22.528Z" fill="#E17719" stroke="#E17719"/>
<path d="M17.2505 30.8596L17.4912 32.0819L14.5659 30.9912L17.2505 30.8596Z" fill="#C0AC9D" stroke="#C0AC9D"/>
<path d="M25.434 30.9912L22.5088 32.0819L22.7494 30.8596L25.434 30.9912Z" fill="#C0AC9D" stroke="#C0AC9D"/>
<path d="M17.5785 26.4138L13.8142 24.4942L17.3698 22.528L17.5785 26.4138Z" fill="#F78419" stroke="#F78419"/>
<path d="M22.6303 22.528L26.1859 24.4942L22.4216 26.4138L22.6303 22.528Z" fill="#F78419" stroke="#F78419"/>
<path d="M18.205 21.0395L18.2034 25.9785L17.3699 22.528L18.205 21.0395Z" fill="#E47424" stroke="#E47424"/>
<path d="M21.7952 21.0395L22.6303 22.528L21.7968 25.9785L21.7952 21.0395Z" fill="#E47424" stroke="#E47424"/>
<path d="M17.3699 22.528L18.2034 25.9785L17.5786 26.4138L17.3699 22.528Z" fill="#F78419" stroke="#F78419"/>
<path d="M22.4215 26.4138L21.7966 25.9785L22.6301 22.528L22.4215 26.4138Z" fill="#F78419" stroke="#F78419"/>
<path d="M18.2048 21.0395H21.7949L21.7966 25.9785L18.2048 21.0395Z" fill="#F78419" stroke="#F78419"/>
<path d="M21.7968 25.9785H18.2034L18.205 21.0395L21.7968 25.9785Z" fill="#F78419" stroke="#F78419"/>
<path d="M17.4912 32.0819L17.2505 30.8596L17.2224 29.3763L17.4912 32.0819Z" fill="#C0AC9D" stroke="#C0AC9D"/>
<path d="M22.7775 29.3763L22.7494 30.8596L22.5088 32.0819L22.7775 29.3763Z" fill="#C0AC9D" stroke="#C0AC9D"/>
<path d="M17.2224 29.3763L17.5448 28.9622L17.4912 32.0819L17.2224 29.3763Z" fill="#C0AC9D" stroke="#C0AC9D"/>
<path d="M17.4912 32.0819L17.5449 28.9622H22.4552L17.4912 32.0819Z" fill="#C0AC9D" stroke="#C0AC9D"/>
<path d="M22.4552 28.9622L22.5089 32.0819H17.4912L22.4552 28.9622Z" fill="#C0AC9D" stroke="#C0AC9D"/>
<path d="M22.5087 32.0819L22.4551 28.9622L22.7775 29.3763L22.5087 32.0819Z" fill="#C0AC9D" stroke="#C0AC9D"/>
<path d="M17.5448 28.9622L17.2224 29.3763L17.5785 26.4138L17.5448 28.9622Z" fill="black" stroke="black"/>
<path d="M22.4216 26.4138L22.7777 29.3763L22.4553 28.9622L22.4216 26.4138Z" fill="black" stroke="black"/>
<path d="M18.1692 26.3472L18.2033 25.9785H21.7967L18.1692 26.3472Z" fill="black" stroke="black"/>
<path d="M21.7967 25.9785L21.8308 26.3472H18.1692L21.7967 25.9785Z" fill="black" stroke="black"/>
<path d="M17.5784 26.4138L18.2032 25.9785L18.1691 26.3472L17.5784 26.4138Z" fill="black" stroke="black"/>
<path d="M21.8307 26.3472L21.7966 25.9785L22.4215 26.4138L21.8307 26.3472Z" fill="black" stroke="black"/>
<path d="M17.5786 26.4138L17.7695 26.7986L17.5449 28.9622L17.5786 26.4138Z" fill="black" stroke="black"/>
<path d="M18.1691 26.3472L17.7693 26.7986L17.5784 26.4138L18.1691 26.3472Z" fill="black" stroke="black"/>
<path d="M22.4553 28.9622L22.2307 26.7986L22.4216 26.4138L22.4553 28.9622Z" fill="black" stroke="black"/>
<path d="M22.4215 26.4138L22.2306 26.7986L21.8308 26.3472L22.4215 26.4138Z" fill="black" stroke="black"/>
<path d="M17.7693 26.7986H22.2305L22.4551 28.9622L17.7693 26.7986Z" fill="black" stroke="black"/>
<path d="M22.4553 28.9622H17.5449L17.7695 26.7986L22.4553 28.9622Z" fill="black" stroke="black"/>
<path d="M21.8307 26.3472L22.2305 26.7986H17.7693L21.8307 26.3472Z" fill="black" stroke="black"/>
<path d="M17.7693 26.7986L18.1691 26.3472H21.8307L17.7693 26.7986Z" fill="black" stroke="black"/>
</svg>
