<svg width="20" height="18" viewBox="0 0 20 18" fill="none" xmlns="http://www.w3.org/2000/svg">
<path d="M6.29 17.251C13.837 17.251 17.965 10.998 17.965 5.57602C17.965 5.39802 17.965 5.22102 17.953 5.04602C18.7562 4.46455 19.4493 3.74463 20 2.92002C19.2511 3.25202 18.4566 3.46978 17.643 3.56602C18.4996 3.05308 19.1408 2.24637 19.447 1.29602C18.6417 1.7739 17.7607 2.11075 16.842 2.29202C16.2234 1.63378 15.405 1.19785 14.5136 1.05172C13.6222 0.905593 12.7075 1.05742 11.9111 1.48369C11.1147 1.90996 10.4811 2.58689 10.1083 3.40968C9.7355 4.23246 9.64437 5.1552 9.849 6.03502C8.21759 5.95326 6.6216 5.52934 5.16465 4.79079C3.70769 4.05223 2.42233 3.01554 1.392 1.74802C0.867318 2.65122 0.706589 3.72044 0.942536 4.73798C1.17848 5.75553 1.79337 6.6449 2.662 7.22502C2.00926 7.20612 1.37063 7.03052 0.8 6.71302V6.76502C0.800389 7.71231 1.1284 8.63032 1.7284 9.36337C2.3284 10.0964 3.16347 10.5994 4.092 10.787C3.48781 10.9517 2.85389 10.9757 2.239 10.857C2.50116 11.6725 3.01168 12.3856 3.69913 12.8966C4.38658 13.4076 5.21657 13.691 6.073 13.707C5.22212 14.3756 4.24779 14.8699 3.20573 15.1616C2.16367 15.4533 1.07432 15.5367 0 15.407C1.8766 16.6114 4.06019 17.2501 6.29 17.247" fill="white" fill-opacity="0.7"/>
</svg>
