<svg width="1104.5093749999999px" height="208.4px" xmlns="http://www.w3.org/2000/svg" viewBox="-302.25468749999993 -29.200000000000003 1104.5093749999999 208.4" style="background: rgba(0, 0, 0, 0);" preserveAspectRatio="xMidYMid"><defs><filter id="editing-jagged" x="-100%" y="-100%" width="300%" height="300%"><feTurbulence result="turb" baseFrequency="0.11" numOctaves="1" seed="1"></feTurbulence><feDisplacementMap in="SourceGraphic" in2="turb" scale="12"></feDisplacementMap></filter></defs><g filter="url(#editing-jagged)"><g transform="translate(-148.8150315284729, 103.29000473022461)"><path d="M5.72-7.92L5.72-45.14L5.72-45.14Q5.72-48.93 7.92-51.13L7.92-51.13L7.92-51.13Q10.12-53.33 13.90-53.33L13.90-53.33L42.94-53.33L42.94-53.33Q43.56-52.36 44.04-50.78L44.04-50.78L44.04-50.78Q44.53-49.19 44.53-47.43L44.53-47.43L44.53-47.43Q44.53-44.09 43.08-42.68L43.08-42.68L43.08-42.68Q41.62-41.27 39.25-41.27L39.25-41.27L20.68-41.27L20.68-33.09L40.48-33.09L40.48-33.09Q41.10-32.12 41.58-30.58L41.58-30.58L41.58-30.58Q42.06-29.04 42.06-27.28L42.06-27.28L42.06-27.28Q42.06-23.94 40.66-22.53L40.66-22.53L40.66-22.53Q39.25-21.12 36.87-21.12L36.87-21.12L20.68-21.12L20.68-11.88L43.30-11.88L43.30-11.88Q43.91-10.91 44.40-9.33L44.40-9.33L44.40-9.33Q44.88-7.74 44.88-5.98L44.88-5.98L44.88-5.98Q44.88-2.64 43.43-1.19L43.43-1.19L43.43-1.19Q41.98 0.26 39.60 0.26L39.60 0.26L13.90 0.26L13.90 0.26Q10.12 0.26 7.92-1.94L7.92-1.94L7.92-1.94Q5.72-4.14 5.72-7.92L5.72-7.92ZM102.26-47.08L102.26-1.85L102.26-1.85Q101.02-0.62 98.69 0.04L98.69 0.04L98.69 0.04Q96.36 0.70 93.10 0.70L93.10 0.70L93.10 0.70Q89.85 0.70 86.94-0.26L86.94-0.26L86.94-0.26Q84.04-1.23 82.19-4.93L82.19-4.93L73.48-22.70L73.48-22.70Q72.16-25.43 71.10-27.85L71.10-27.85L71.10-27.85Q70.05-30.27 68.82-33.44L68.82-33.44L68.29-33.35L68.29-33.35Q68.64-28.60 68.68-23.67L68.68-23.67L68.68-23.67Q68.73-18.74 68.73-13.99L68.73-13.99L68.73-0.35L68.73-0.35Q67.76-0.09 65.78 0.18L65.78 0.18L65.78 0.18Q63.80 0.44 61.86 0.44L61.86 0.44L61.86 0.44Q59.93 0.44 58.43 0.18L58.43 0.18L58.43 0.18Q56.94-0.09 55.97-0.88L55.97-0.88L55.97-0.88Q55-1.67 54.47-3.04L54.47-3.04L54.47-3.04Q53.94-4.40 53.94-6.60L53.94-6.60L53.94-50.60L53.94-50.60Q55.18-52.36 57.73-53.24L57.73-53.24L57.73-53.24Q60.28-54.12 63.18-54.12L63.18-54.12L63.18-54.12Q66.44-54.12 69.39-53.11L69.39-53.11L69.39-53.11Q72.34-52.10 74.10-48.49L74.10-48.49L82.90-30.71L82.90-30.71Q84.22-27.98 85.27-25.56L85.27-25.56L85.27-25.56Q86.33-23.14 87.56-19.98L87.56-19.98L88-20.06L88-20.06Q87.65-24.82 87.56-29.57L87.56-29.57L87.56-29.57Q87.47-34.32 87.47-39.07L87.47-39.07L87.47-53.33L87.47-53.33Q88.44-53.59 90.42-53.86L90.42-53.86L90.42-53.86Q92.40-54.12 94.34-54.12L94.34-54.12L94.34-54.12Q98.21-54.12 100.23-52.76L100.23-52.76L100.23-52.76Q102.26-51.39 102.26-47.08L102.26-47.08ZM124.43-41.01L111.23-41.01L111.23-41.01Q110.62-41.98 110.09-43.65L110.09-43.65L110.09-43.65Q109.56-45.32 109.56-47.17L109.56-47.17L109.56-47.17Q109.56-50.60 111.10-52.10L111.10-52.10L111.10-52.10Q112.64-53.59 115.10-53.59L115.10-53.59L153.47-53.59L153.47-53.59Q154.09-52.62 154.62-50.95L154.62-50.95L154.62-50.95Q155.14-49.28 155.14-47.43L155.14-47.43L155.14-47.43Q155.14-44 153.60-42.50L153.60-42.50L153.60-42.50Q152.06-41.01 149.60-41.01L149.60-41.01L139.83-41.01L139.83-0.35L139.83-0.35Q138.86-0.09 136.80 0.18L136.80 0.18L136.80 0.18Q134.73 0.44 132.70 0.44L132.70 0.44L132.70 0.44Q130.68 0.44 129.14 0.13L129.14 0.13L129.14 0.13Q127.60-0.18 126.54-0.97L126.54-0.97L126.54-0.97Q125.49-1.76 124.96-3.17L124.96-3.17L124.96-3.17Q124.43-4.58 124.43-6.86L124.43-6.86L124.43-41.01ZM162.62-7.92L162.62-45.14L162.62-45.14Q162.62-48.93 164.82-51.13L164.82-51.13L164.82-51.13Q167.02-53.33 170.81-53.33L170.81-53.33L199.85-53.33L199.85-53.33Q200.46-52.36 200.95-50.78L200.95-50.78L200.95-50.78Q201.43-49.19 201.43-47.43L201.43-47.43L201.43-47.43Q201.43-44.09 199.98-42.68L199.98-42.68L199.98-42.68Q198.53-41.27 196.15-41.27L196.15-41.27L177.58-41.27L177.58-33.09L197.38-33.09L197.38-33.09Q198-32.12 198.48-30.58L198.48-30.58L198.48-30.58Q198.97-29.04 198.97-27.28L198.97-27.28L198.97-27.28Q198.97-23.94 197.56-22.53L197.56-22.53L197.56-22.53Q196.15-21.12 193.78-21.12L193.78-21.12L177.58-21.12L177.58-11.88L200.20-11.88L200.20-11.88Q200.82-10.91 201.30-9.33L201.30-9.33L201.30-9.33Q201.78-7.74 201.78-5.98L201.78-5.98L201.78-5.98Q201.78-2.64 200.33-1.19L200.33-1.19L200.33-1.19Q198.88 0.26 196.50 0.26L196.50 0.26L170.81 0.26L170.81 0.26Q167.02 0.26 164.82-1.94L164.82-1.94L164.82-1.94Q162.62-4.14 162.62-7.92L162.62-7.92ZM230.82-17.25L226.16-17.25L226.16-0.35L226.16-0.35Q225.19-0.09 223.12 0.18L223.12 0.18L223.12 0.18Q221.06 0.44 219.03 0.44L219.03 0.44L219.03 0.44Q217.01 0.44 215.47 0.13L215.47 0.13L215.47 0.13Q213.93-0.18 212.92-0.97L212.92-0.97L212.92-0.97Q211.90-1.76 211.38-3.17L211.38-3.17L211.38-3.17Q210.85-4.58 210.85-6.86L210.85-6.86L210.85-48.31L210.85-48.31Q210.85-50.16 211.86-51.17L211.86-51.17L211.86-51.17Q212.87-52.18 214.63-52.80L214.63-52.80L214.63-52.80Q217.62-53.86 221.58-54.34L221.58-54.34L221.58-54.34Q225.54-54.82 230.03-54.82L230.03-54.82L230.03-54.82Q242.18-54.82 248.34-49.72L248.34-49.72L248.34-49.72Q254.50-44.62 254.50-35.90L254.50-35.90L254.50-35.90Q254.50-30.45 251.68-26.58L251.68-26.58L251.68-26.58Q248.86-22.70 244.99-20.59L244.99-20.59L244.99-20.59Q248.16-16.28 251.24-12.50L251.24-12.50L251.24-12.50Q254.32-8.71 256.08-5.63L256.08-5.63L256.08-5.63Q255.20-2.55 252.87-0.92L252.87-0.92L252.87-0.92Q250.54 0.70 247.63 0.70L247.63 0.70L247.63 0.70Q245.70 0.70 244.29 0.26L244.29 0.26L244.29 0.26Q242.88-0.18 241.82-0.97L241.82-0.97L241.82-0.97Q240.77-1.76 239.89-2.90L239.89-2.90L239.89-2.90Q239.01-4.05 238.22-5.37L238.22-5.37L230.82-17.25ZM226.07-28.95L231.70-28.95L231.70-28.95Q235.05-28.95 236.98-30.67L236.98-30.67L236.98-30.67Q238.92-32.38 238.92-35.73L238.92-35.73L238.92-35.73Q238.92-39.07 236.76-40.79L236.76-40.79L236.76-40.79Q234.61-42.50 229.94-42.50L229.94-42.50L229.94-42.50Q228.62-42.50 227.83-42.42L227.83-42.42L227.83-42.42Q227.04-42.33 226.07-42.15L226.07-42.15L226.07-28.95ZM292.78-41.01L279.58-41.01L279.58-41.01Q278.96-41.98 278.43-43.65L278.43-43.65L278.43-43.65Q277.90-45.32 277.90-47.17L277.90-47.17L277.90-47.17Q277.90-50.60 279.44-52.10L279.44-52.10L279.44-52.10Q280.98-53.59 283.45-53.59L283.45-53.59L321.82-53.59L321.82-53.59Q322.43-52.62 322.96-50.95L322.96-50.95L322.96-50.95Q323.49-49.28 323.49-47.43L323.49-47.43L323.49-47.43Q323.49-44 321.95-42.50L321.95-42.50L321.95-42.50Q320.41-41.01 317.94-41.01L317.94-41.01L308.18-41.01L308.18-0.35L308.18-0.35Q307.21-0.09 305.14 0.18L305.14 0.18L305.14 0.18Q303.07 0.44 301.05 0.44L301.05 0.44L301.05 0.44Q299.02 0.44 297.48 0.13L297.48 0.13L297.48 0.13Q295.94-0.18 294.89-0.97L294.89-0.97L294.89-0.97Q293.83-1.76 293.30-3.17L293.30-3.17L293.30-3.17Q292.78-4.58 292.78-6.86L292.78-6.86L292.78-41.01ZM378.66-46.82L378.66-0.35L378.66-0.35Q377.70-0.09 375.63 0.18L375.63 0.18L375.63 0.18Q373.56 0.44 371.54 0.44L371.54 0.44L371.54 0.44Q369.51 0.44 367.97 0.13L367.97 0.13L367.97 0.13Q366.43-0.18 365.38-0.97L365.38-0.97L365.38-0.97Q364.32-1.76 363.79-3.17L363.79-3.17L363.79-3.17Q363.26-4.58 363.26-6.86L363.26-6.86L363.26-20.59L346.37-20.59L346.37-0.35L346.37-0.35Q345.40-0.09 343.33 0.18L343.33 0.18L343.33 0.18Q341.26 0.44 339.24 0.44L339.24 0.44L339.24 0.44Q337.22 0.44 335.68 0.13L335.68 0.13L335.68 0.13Q334.14-0.18 333.08-0.97L333.08-0.97L333.08-0.97Q332.02-1.76 331.50-3.17L331.50-3.17L331.50-3.17Q330.97-4.58 330.97-6.86L330.97-6.86L330.97-53.33L330.97-53.33Q331.94-53.50 334.05-53.81L334.05-53.81L334.05-53.81Q336.16-54.12 338.10-54.12L338.10-54.12L338.10-54.12Q340.12-54.12 341.66-53.81L341.66-53.81L341.66-53.81Q343.20-53.50 344.26-52.71L344.26-52.71L344.26-52.71Q345.31-51.92 345.84-50.51L345.84-50.51L345.84-50.51Q346.37-49.10 346.37-46.82L346.37-46.82L346.37-32.74L363.26-32.74L363.26-53.33L363.26-53.33Q364.23-53.50 366.34-53.81L366.34-53.81L366.34-53.81Q368.46-54.12 370.39-54.12L370.39-54.12L370.39-54.12Q372.42-54.12 373.96-53.81L373.96-53.81L373.96-53.81Q375.50-53.50 376.55-52.71L376.55-52.71L376.55-52.71Q377.61-51.92 378.14-50.51L378.14-50.51L378.14-50.51Q378.66-49.10 378.66-46.82L378.66-46.82ZM390.10-7.92L390.10-45.14L390.10-45.14Q390.10-48.93 392.30-51.13L392.30-51.13L392.30-51.13Q394.50-53.33 398.29-53.33L398.29-53.33L427.33-53.33L427.33-53.33Q427.94-52.36 428.43-50.78L428.43-50.78L428.43-50.78Q428.91-49.19 428.91-47.43L428.91-47.43L428.91-47.43Q428.91-44.09 427.46-42.68L427.46-42.68L427.46-42.68Q426.01-41.27 423.63-41.27L423.63-41.27L405.06-41.27L405.06-33.09L424.86-33.09L424.86-33.09Q425.48-32.12 425.96-30.58L425.96-30.58L425.96-30.58Q426.45-29.04 426.45-27.28L426.45-27.28L426.45-27.28Q426.45-23.94 425.04-22.53L425.04-22.53L425.04-22.53Q423.63-21.12 421.26-21.12L421.26-21.12L405.06-21.12L405.06-11.88L427.68-11.88L427.68-11.88Q428.30-10.91 428.78-9.33L428.78-9.33L428.78-9.33Q429.26-7.74 429.26-5.98L429.26-5.98L429.26-5.98Q429.26-2.64 427.81-1.19L427.81-1.19L427.81-1.19Q426.36 0.26 423.98 0.26L423.98 0.26L398.29 0.26L398.29 0.26Q394.50 0.26 392.30-1.94L392.30-1.94L392.30-1.94Q390.10-4.14 390.10-7.92L390.10-7.92ZM471.24-42.06L471.24-11.44L471.24-11.44Q472.21-11.26 473.62-11.13L473.62-11.13L473.62-11.13Q475.02-11 476.26-11L476.26-11L476.26-11Q479.25-11 481.76-11.88L481.76-11.88L481.76-11.88Q484.26-12.76 486.07-14.61L486.07-14.61L486.07-14.61Q487.87-16.46 488.88-19.40L488.88-19.40L488.88-19.40Q489.90-22.35 489.90-26.49L489.90-26.49L489.90-26.49Q489.90-34.41 486.20-38.41L486.20-38.41L486.20-38.41Q482.50-42.42 476.34-42.42L476.34-42.42L476.34-42.42Q475.11-42.42 473.84-42.33L473.84-42.33L473.84-42.33Q472.56-42.24 471.24-42.06L471.24-42.06ZM476.17 1.41L476.17 1.41L476.17 1.41Q474.67 1.41 472.74 1.32L472.74 1.32L472.74 1.32Q470.80 1.23 468.73 0.97L468.73 0.97L468.73 0.97Q466.66 0.70 464.60 0.31L464.60 0.31L464.60 0.31Q462.53-0.09 460.77-0.79L460.77-0.79L460.77-0.79Q455.93-2.64 455.93-7.22L455.93-7.22L455.93-48.31L455.93-48.31Q455.93-50.16 456.94-51.17L456.94-51.17L456.94-51.17Q457.95-52.18 459.71-52.80L459.71-52.80L459.71-52.80Q463.50-54.03 467.72-54.43L467.72-54.43L467.72-54.43Q471.94-54.82 475.29-54.82L475.29-54.82L475.29-54.82Q482.15-54.82 487.74-53.15L487.74-53.15L487.74-53.15Q493.33-51.48 497.33-48.00L497.33-48.00L497.33-48.00Q501.34-44.53 503.54-39.25L503.54-39.25L503.54-39.25Q505.74-33.97 505.74-26.75L505.74-26.75L505.74-26.75Q505.74-19.71 503.62-14.48L503.62-14.48L503.62-14.48Q501.51-9.24 497.60-5.68L497.60-5.68L497.60-5.68Q493.68-2.11 488.22-0.35L488.22-0.35L488.22-0.35Q482.77 1.41 476.17 1.41ZM534.51-17.25L529.85-17.25L529.85-0.35L529.85-0.35Q528.88-0.09 526.81 0.18L526.81 0.18L526.81 0.18Q524.74 0.44 522.72 0.44L522.72 0.44L522.72 0.44Q520.70 0.44 519.16 0.13L519.16 0.13L519.16 0.13Q517.62-0.18 516.60-0.97L516.60-0.97L516.60-0.97Q515.59-1.76 515.06-3.17L515.06-3.17L515.06-3.17Q514.54-4.58 514.54-6.86L514.54-6.86L514.54-48.31L514.54-48.31Q514.54-50.16 515.55-51.17L515.55-51.17L515.55-51.17Q516.56-52.18 518.32-52.80L518.32-52.80L518.32-52.80Q521.31-53.86 525.27-54.34L525.27-54.34L525.27-54.34Q529.23-54.82 533.72-54.82L533.72-54.82L533.72-54.82Q545.86-54.82 552.02-49.72L552.02-49.72L552.02-49.72Q558.18-44.62 558.18-35.90L558.18-35.90L558.18-35.90Q558.18-30.45 555.37-26.58L555.37-26.58L555.37-26.58Q552.55-22.70 548.68-20.59L548.68-20.59L548.68-20.59Q551.85-16.28 554.93-12.50L554.93-12.50L554.93-12.50Q558.01-8.71 559.77-5.63L559.77-5.63L559.77-5.63Q558.89-2.55 556.56-0.92L556.56-0.92L556.56-0.92Q554.22 0.70 551.32 0.70L551.32 0.70L551.32 0.70Q549.38 0.70 547.98 0.26L547.98 0.26L547.98 0.26Q546.57-0.18 545.51-0.97L545.51-0.97L545.51-0.97Q544.46-1.76 543.58-2.90L543.58-2.90L543.58-2.90Q542.70-4.05 541.90-5.37L541.90-5.37L534.51-17.25ZM529.76-28.95L535.39-28.95L535.39-28.95Q538.74-28.95 540.67-30.67L540.67-30.67L540.67-30.67Q542.61-32.38 542.61-35.73L542.61-35.73L542.61-35.73Q542.61-39.07 540.45-40.79L540.45-40.79L540.45-40.79Q538.30-42.50 533.63-42.50L533.63-42.50L533.63-42.50Q532.31-42.50 531.52-42.42L531.52-42.42L531.52-42.42Q530.73-42.33 529.76-42.15L529.76-42.15L529.76-28.95ZM579.48-51.74L579.48-51.74L579.48-51.74Q580.98-52.62 584.01-53.42L584.01-53.42L584.01-53.42Q587.05-54.21 590.13-54.21L590.13-54.21L590.13-54.21Q594.53-54.21 597.92-52.93L597.92-52.93L597.92-52.93Q601.30-51.66 602.27-48.93L602.27-48.93L602.27-48.93Q603.86-44.35 605.70-38.28L605.70-38.28L605.70-38.28Q607.55-32.21 609.40-25.74L609.40-25.74L609.40-25.74Q611.25-19.27 613.01-12.98L613.01-12.98L613.01-12.98Q614.77-6.69 616.09-1.85L616.09-1.85L616.09-1.85Q615.03-0.62 612.92 0.13L612.92 0.13L612.92 0.13Q610.81 0.88 607.90 0.88L607.90 0.88L607.90 0.88Q605.79 0.88 604.34 0.53L604.34 0.53L604.34 0.53Q602.89 0.18 601.96-0.53L601.96-0.53L601.96-0.53Q601.04-1.23 600.47-2.38L600.47-2.38L600.47-2.38Q599.90-3.52 599.46-5.02L599.46-5.02L597.87-11.09L581.94-11.09L581.94-11.09Q581.24-8.45 580.54-5.63L580.54-5.63L580.54-5.63Q579.83-2.82 579.13-0.18L579.13-0.18L579.13-0.18Q577.90 0.26 576.53 0.57L576.53 0.57L576.53 0.57Q575.17 0.88 573.23 0.88L573.23 0.88L573.23 0.88Q568.74 0.88 566.59-0.66L566.59-0.66L566.59-0.66Q564.43-2.20 564.43-4.93L564.43-4.93L564.43-4.93Q564.43-6.16 564.78-7.39L564.78-7.39L564.78-7.39Q565.14-8.62 565.58-10.30L565.58-10.30L565.58-10.30Q566.19-12.67 567.29-16.19L567.29-16.19L567.29-16.19Q568.39-19.71 569.71-23.80L569.71-23.80L569.71-23.80Q571.03-27.90 572.53-32.21L572.53-32.21L572.53-32.21Q574.02-36.52 575.34-40.35L575.34-40.35L575.34-40.35Q576.66-44.18 577.76-47.17L577.76-47.17L577.76-47.17Q578.86-50.16 579.48-51.74ZM590.57-40.39L590.04-40.39L590.04-40.39Q588.81-36.70 587.27-32.16L587.27-32.16L587.27-32.16Q585.73-27.63 584.50-22.97L584.50-22.97L595.41-22.97L595.41-22.97Q594.18-27.72 592.90-32.25L592.90-32.25L592.90-32.25Q591.62-36.78 590.57-40.39L590.57-40.39ZM671.62-26.66L671.62-8.71L671.62-8.71Q671.62-5.98 670.65-4.66L670.65-4.66L670.65-4.66Q669.68-3.34 667.57-2.11L667.57-2.11L667.57-2.11Q666.34-1.41 664.49-0.75L664.49-0.75L664.49-0.75Q662.64-0.09 660.44 0.40L660.44 0.40L660.44 0.40Q658.24 0.88 655.82 1.14L655.82 1.14L655.82 1.14Q653.40 1.41 651.02 1.41L651.02 1.41L651.02 1.41Q644.69 1.41 639.14-0.31L639.14-0.31L639.14-0.31Q633.60-2.02 629.51-5.50L629.51-5.50L629.51-5.50Q625.42-8.98 623.04-14.17L623.04-14.17L623.04-14.17Q620.66-19.36 620.66-26.22L620.66-26.22L620.66-26.22Q620.66-33.44 623.26-38.81L623.26-38.81L623.26-38.81Q625.86-44.18 630.12-47.74L630.12-47.74L630.12-47.74Q634.39-51.30 639.89-53.06L639.89-53.06L639.89-53.06Q645.39-54.82 651.20-54.82L651.20-54.82L651.20-54.82Q659.56-54.82 664.44-52.14L664.44-52.14L664.44-52.14Q669.33-49.46 669.33-45.14L669.33-45.14L669.33-45.14Q669.33-42.86 668.18-41.18L668.18-41.18L668.18-41.18Q667.04-39.51 665.54-38.54L665.54-38.54L665.54-38.54Q663.34-39.86 660.04-41.14L660.04-41.14L660.04-41.14Q656.74-42.42 652.61-42.42L652.61-42.42L652.61-42.42Q645.22-42.42 640.86-38.19L640.86-38.19L640.86-38.19Q636.50-33.97 636.50-26.49L636.50-26.49L636.50-26.49Q636.50-22.44 637.69-19.49L637.69-19.49L637.69-19.49Q638.88-16.54 640.90-14.65L640.90-14.65L640.90-14.65Q642.93-12.76 645.57-11.84L645.57-11.84L645.57-11.84Q648.21-10.91 651.20-10.91L651.20-10.91L651.20-10.91Q653.14-10.91 654.63-11.26L654.63-11.26L654.63-11.26Q656.13-11.62 656.92-12.06L656.92-12.06L656.92-20.33L647.50-20.33L647.50-20.33Q646.98-21.30 646.49-22.88L646.49-22.88L646.49-22.88Q646.01-24.46 646.01-26.22L646.01-26.22L646.01-26.22Q646.01-29.39 647.46-30.80L647.46-30.80L647.46-30.80Q648.91-32.21 651.20-32.21L651.20-32.21L666.07-32.21L666.07-32.21Q668.71-32.21 670.16-30.76L670.16-30.76L670.16-30.76Q671.62-29.30 671.62-26.66L671.62-26.66ZM679.10-26.75L679.10-26.75L679.10-26.75Q679.10-33.62 681.25-38.90L681.25-38.90L681.25-38.90Q683.41-44.18 687.15-47.74L687.15-47.74L687.15-47.74Q690.89-51.30 695.95-53.15L695.95-53.15L695.95-53.15Q701.01-55 706.90-55L706.90-55L706.90-55Q712.80-55 717.86-53.15L717.86-53.15L717.86-53.15Q722.92-51.30 726.70-47.74L726.70-47.74L726.70-47.74Q730.49-44.18 732.64-38.90L732.64-38.90L732.64-38.90Q734.80-33.62 734.80-26.75L734.80-26.75L734.80-26.75Q734.80-19.89 732.69-14.56L732.69-14.56L732.69-14.56Q730.58-9.24 726.84-5.68L726.84-5.68L726.84-5.68Q723.10-2.11 717.99-0.26L717.99-0.26L717.99-0.26Q712.89 1.58 706.90 1.58L706.90 1.58L706.90 1.58Q700.92 1.58 695.82-0.31L695.82-0.31L695.82-0.31Q690.71-2.20 687.02-5.81L687.02-5.81L687.02-5.81Q683.32-9.42 681.21-14.70L681.21-14.70L681.21-14.70Q679.10-19.98 679.10-26.75ZM694.94-26.75L694.94-26.75L694.94-26.75Q694.94-18.74 698.19-14.78L698.19-14.78L698.19-14.78Q701.45-10.82 706.90-10.82L706.90-10.82L706.90-10.82Q712.45-10.82 715.70-14.78L715.70-14.78L715.70-14.78Q718.96-18.74 718.96-26.75L718.96-26.75L718.96-26.75Q718.96-34.67 715.75-38.63L715.75-38.63L715.75-38.63Q712.54-42.59 706.99-42.59L706.99-42.59L706.99-42.59Q701.54-42.59 698.24-38.68L698.24-38.68L698.24-38.68Q694.94-34.76 694.94-26.75ZM791.91-47.08L791.91-1.85L791.91-1.85Q790.68-0.62 788.35 0.04L788.35 0.04L788.35 0.04Q786.02 0.70 782.76 0.70L782.76 0.70L782.76 0.70Q779.50 0.70 776.60-0.26L776.60-0.26L776.60-0.26Q773.70-1.23 771.85-4.93L771.85-4.93L763.14-22.70L763.14-22.70Q761.82-25.43 760.76-27.85L760.76-27.85L760.76-27.85Q759.70-30.27 758.47-33.44L758.47-33.44L757.94-33.35L757.94-33.35Q758.30-28.60 758.34-23.67L758.34-23.67L758.34-23.67Q758.38-18.74 758.38-13.99L758.38-13.99L758.38-0.35L758.38-0.35Q757.42-0.09 755.44 0.18L755.44 0.18L755.44 0.18Q753.46 0.44 751.52 0.44L751.52 0.44L751.52 0.44Q749.58 0.44 748.09 0.18L748.09 0.18L748.09 0.18Q746.59-0.09 745.62-0.88L745.62-0.88L745.62-0.88Q744.66-1.67 744.13-3.04L744.13-3.04L744.13-3.04Q743.60-4.40 743.60-6.60L743.60-6.60L743.60-50.60L743.60-50.60Q744.83-52.36 747.38-53.24L747.38-53.24L747.38-53.24Q749.94-54.12 752.84-54.12L752.84-54.12L752.84-54.12Q756.10-54.12 759.04-53.11L759.04-53.11L759.04-53.11Q761.99-52.10 763.75-48.49L763.75-48.49L772.55-30.71L772.55-30.71Q773.87-27.98 774.93-25.56L774.93-25.56L774.93-25.56Q775.98-23.14 777.22-19.98L777.22-19.98L777.66-20.06L777.66-20.06Q777.30-24.82 777.22-29.57L777.22-29.57L777.22-29.57Q777.13-34.32 777.13-39.07L777.13-39.07L777.13-53.33L777.13-53.33Q778.10-53.59 780.08-53.86L780.08-53.86L780.08-53.86Q782.06-54.12 783.99-54.12L783.99-54.12L783.99-54.12Q787.86-54.12 789.89-52.76L789.89-52.76L789.89-52.76Q791.91-51.39 791.91-47.08L791.91-47.08Z" fill="#FFD700"></path></g></g><style>text {
  font-size: 64px;
  font-family: Arial Black;
  dominant-baseline: central;
  text-anchor: middle;
}</style></svg>