<svg width="18" height="12" viewBox="0 0 18 12" fill="none" xmlns="http://www.w3.org/2000/svg">
<path d="M15.7497 1.51886C13.7361 0.0739735 11.8599 0.0139058 11.5014 0.00640869L11.2726 0.223551C13.8429 0.942315 15.0862 2.06542 15.0862 2.06542C12.8799 0.999884 10.8008 0.625167 8.99962 0.60263C7.19846 0.625349 5.11932 0.999884 2.9131 2.06542C2.9131 2.06542 4.15634 0.942315 6.72674 0.223551L6.49788 0.00640869C6.13942 0.0139058 4.26311 0.0737917 2.24954 1.51886C2.24954 1.51886 -0.000488281 5.29248 -0.000488281 9.92712C0.0757546 9.83729 1.39528 11.9187 4.79704 11.9936C4.79704 11.9936 5.36909 11.3572 5.78093 10.7956C3.79784 10.2341 3.05041 9.11103 3.05041 9.11103C5.11205 10.3858 7.03771 10.8763 8.99962 10.8126C10.9615 10.8762 12.8872 10.3858 14.9488 9.11103C14.9488 9.11103 14.2014 10.2341 12.2181 10.7956C12.63 11.3572 13.202 11.9936 13.202 11.9936C16.6037 11.9187 17.9233 9.83729 17.9995 9.92712C17.9997 5.29248 15.7497 1.51886 15.7497 1.51886ZM6.23075 8.4746C5.36123 8.4746 4.65955 7.75578 4.65955 6.87227C4.65955 5.98875 5.36123 5.26999 6.23075 5.26999V5.27748C7.09264 5.27748 7.80196 5.99629 7.80196 6.87976C7.80214 7.75579 7.10037 8.4746 6.23093 8.4746H6.23075ZM11.7681 8.4746C10.8986 8.4746 10.1969 7.75579 10.1969 6.87976C10.1969 5.99629 10.9062 5.27748 11.7681 5.27748V5.26999C12.6376 5.26999 13.3393 5.9888 13.3393 6.87227C13.3393 7.75574 12.6378 8.4746 11.7683 8.4746H11.7681Z" fill="white"/>
</svg>
