<svg width="20" height="20" viewBox="0 0 20 20" fill="none" xmlns="http://www.w3.org/2000/svg">
<path fill-rule="evenodd" clip-rule="evenodd" d="M9.99951 0.230774C4.47651 0.230774 -0.000488281 4.71477 -0.000488281 10.2478C-0.000488281 14.6728 2.86451 18.4278 6.83851 19.7518C7.33851 19.8438 7.52051 19.5348 7.52051 19.2688C7.52051 19.0318 7.51251 18.4008 7.50751 17.5658C4.72551 18.1708 4.13851 16.2228 4.13851 16.2228C3.68451 15.0648 3.02851 14.7568 3.02851 14.7568C2.12051 14.1368 3.09751 14.1488 3.09751 14.1488C4.10051 14.2188 4.62851 15.1808 4.62851 15.1808C5.52051 16.7108 6.96951 16.2688 7.53851 16.0128C7.63051 15.3658 7.88851 14.9248 8.17451 14.6748C5.95451 14.4218 3.61951 13.5618 3.61951 9.72377C3.61951 8.63077 4.00951 7.73577 4.64851 7.03577C4.54551 6.78277 4.20251 5.76377 4.74651 4.38577C4.74651 4.38577 5.58651 4.11577 7.49651 5.41177C8.31228 5.18929 9.15395 5.07597 9.99951 5.07477C10.8495 5.07877 11.7045 5.18977 12.5035 5.41177C14.4125 4.11577 15.2505 4.38477 15.2505 4.38477C15.7965 5.76377 15.4525 6.78277 15.3505 7.03577C15.9905 7.73577 16.3785 8.63077 16.3785 9.72377C16.3785 13.5718 14.0395 14.4188 11.8125 14.6668C12.1715 14.9758 12.4905 15.5868 12.4905 16.5218C12.4905 17.8598 12.4785 18.9408 12.4785 19.2688C12.4785 19.5368 12.6585 19.8488 13.1665 19.7508C15.1578 19.0829 16.8888 17.8061 18.115 16.1008C19.3411 14.3956 20.0004 12.3481 19.9995 10.2478C19.9995 4.71477 15.5215 0.230774 9.99951 0.230774Z" fill="white" fill-opacity="0.7"/>
</svg>
